<?xml version="1.0" encoding="utf-8"?>
<svg xmlns="http://www.w3.org/2000/svg" xmlns:amcharts="http://amcharts.com/ammap" xmlns:xlink="http://www.w3.org/1999/xlink" version="1.1" viewBox="282.57 0.0 102.03000000000003 110.04" >

    <g>
        <path id="UA-74" title="Chernihiv" fill="black" d="M374.41,0.33L374.79,0.22L378.02,1.6L378.48,1.37L379.13,1.58L380.35,0.46L380.98,0.5L381.74,1.16L381.64,1.65L382.15,1.9L382.15,1.9L381.68,3.15L380.88,3.45L381.27,4.36L380.75,4.55L381.05,4.91L380.63,5.39L380.67,6.12L380.32,6.67L379.88,6.73L380.16,7.55L379.54,8.67L378.39,9.12L378.96,9.8L378.28,10.49L378.39,11.23L379.13,12.32L378.77,12.43L378.59,13.38L379.28,13.48L378.78,13.24L379.24,12.96L381.69,14.09L381.61,14.65L382.43,14.94L382.73,15.64L382.53,16.14L383.18,15.96L384.3,16.35L384.6,16.07L384.58,18.78L383.51,18.81L382.11,19.43L381.31,18.15L380.83,18.13L379.7,19.21L378.39,19.17L377.98,20.06L379.01,20.5L380.36,22.15L379.58,24.77L378.75,24.79L378.27,24.38L377.64,24.58L377.43,25.25L376.38,24.99L376,25.53L375.08,25.59L375.14,26.03L373.65,26.15L373.62,27.22L371.79,28.38L371.97,29.99L372.34,30.15L372.61,30.92L371.83,31.27L371.11,32.84L370.66,32.79L370.38,33.21L370.77,33.33L371.19,34.79L372.26,36L372.53,39.17L372.02,40.24L372.83,40.48L372.92,42.21L374.13,43.6L375.19,43.79L374.66,44.36L373.09,44.31L372.97,44.73L373.41,45.8L373.95,46.1L374.19,47.8L372.74,48.58L372.34,48.4L372.1,49.05L372.25,49.9L371.8,50.47L371.56,52.07L372.2,52.67L371.66,53.39L372.26,53.72L372.11,54.62L371.65,54.59L371.45,54.08L370.65,54.01L370.88,54.48L371.38,54.52L371.45,55.23L370.62,55.36L369.76,55.17L369.78,54.56L368.98,54.13L369.62,53.41L369.31,53.15L368.35,53.85L369.02,55.3L368.95,56.53L369.89,56.51L370.37,57.73L369.96,58.62L369.26,58.84L369.7,59.2L369.08,59.34L370.19,59.59L369.7,60.88L370.02,61.52L368.78,62.91L369.06,64.13L368.61,64.44L367.36,64.49L366.88,65.03L367.16,65.29L366.4,66.46L367.41,67.44L365.81,70.19L366.2,70.54L366.34,70.28L368.97,70.76L369.02,71.26L370.09,71.47L369.75,72.51L370.53,73.17L369.68,73.8L369.13,75.56L370.33,76.07L370.34,75.56L371.67,74.78L372.41,77.43L372.76,77.62L373.17,77.3L374.49,77.23L374.35,79.22L374.71,80.82L373.88,80.81L373.47,81.21L373.78,82.26L373.41,83.07L373.92,83.29L372.95,84.45L373.37,85.9L372.88,86.32L374.07,88.65L374.69,88.65L374.93,89.2L375.53,89.13L375.76,89.41L374.91,89.98L372.36,90.57L372.82,91.47L372.72,93.48L371.65,94.04L371.81,94.52L371.21,96.38L371.83,96.77L371.12,96.96L371.01,97.6L369.37,99.63L369.99,100.72L369.99,100.72L369.15,101.63L368.5,101.7L368.14,103.25L366.78,103.2L366.97,103.85L366.6,104L366.39,104.85L365.9,104.77L365.43,105.2L365.69,105.56L364.74,105.87L364.86,106.68L362.17,108.52L360.58,108.68L360.46,109.16L360.92,109.45L360.6,109.9L359.89,109.56L359.68,109.81L359.2,109.28L358.98,109.64L358.86,109.36L356.57,109.36L356.62,108.67L355.3,108.85L355.19,109.45L352.85,109.28L351.6,110.04L350.27,108.73L350.48,107.17L348.86,107.2L347.44,106.52L347.18,106.76L346.4,106.37L346.25,105.67L344.78,105.81L344.53,106.23L344.78,106.87L343.79,107.32L343.67,108.18L342.42,108.53L342.77,109.11L342.4,109.92L341.87,109.52L341.53,109.81L341.18,109.4L338.73,109.95L338.73,109.95L338.65,109.59L339.23,108.83L339.11,108.4L337.85,108.17L336.71,108.5L336.44,107.53L337.19,106.36L335.51,107.14L334.65,104.09L332.73,103.42L333.08,102.83L332.6,102.57L333.26,102.65L333.34,102.04L333.85,101.99L334.1,102.53L335.32,102.14L335.94,101.24L335.6,100.61L335.94,99.65L334.97,99.59L334.97,99.59L334.97,99.59L334.97,99.59L332.73,99.67L332.73,99.67L332.73,99.67L332.73,99.67L332.21,99.48L331.17,96.81L329.85,96.16L329.02,94.9L327.41,95.34L327.4,96.13L326.53,96.3L326.69,97.57L326.31,97.78L326.4,98.69L323.23,98.52L322.57,99.2L321.89,98.99L321.88,100.04L321.35,100.65L319.31,100.38L318.79,100.84L317.67,100.27L317.5,100.67L316.63,100.65L314.85,101.79L314.1,101.71L313.96,100.92L312.49,100.02L311.09,101.79L310.74,100.42L308.66,99.64L308.68,98.76L308.4,98.79L308.27,98.19L306.33,97.84L306.32,97.13L305.65,97.11L305.67,96.05L307.35,96.17L307.65,95.84L307.38,95.47L307.61,95.1L306.73,94.23L307.48,92.79L307.34,91.5L306.96,91.37L306.94,90.92L306.41,91.1L306.37,89.92L305.58,89.85L305.61,89.36L304.14,88.45L304.21,87.18L302.57,86.91L302.23,87.75L298.54,87.79L298.3,88.12L296.62,87.65L296.25,87.26L295.8,87.55L295.68,88.67L294.93,88.81L294.37,88.77L294.23,88.19L294.68,88.27L294.71,87.71L295.69,86.93L294.34,87.95L292.36,87.01L291.11,87.33L291.03,86.67L291.46,85.84L290.93,84.99L291.39,84.82L291.91,85.22L292.04,84.5L292.51,84.09L292.1,81.76L291.11,81.19L290.93,80.72L289.37,80.3L288.58,77.94L287.95,77.07L287.93,75.14L286.61,74.6L286.48,73.73L283.12,73.94L282.9,72.34L283.37,71.18L282.57,70.06L283.51,69.61L283.66,69.2L282.85,68.01L282.74,66.12L283.1,65.61L283.98,65.74L284.4,65.46L283.61,65.06L284.1,64.13L283.21,62.94L283.51,62.61L284.69,62.73L285,62.48L284.95,61.67L284.37,61L284.37,61L286.9,59.73L287.2,58.65L286.53,58.94L286.84,58.57L286.21,58.21L287.22,57.23L288.14,56.84L287.68,55.67L288.28,54.67L287.06,52.13L286.25,52.34L285.95,52.03L285.8,50.83L287.15,50.32L287.19,49.97L286.11,49.36L285.87,48.02L285.39,47.56L285.84,45.61L285.44,45.37L284.67,45.9L284.04,44.72L284.06,44.26L284.9,43.84L284.02,43.59L283.39,42.88L283.73,42.47L284.65,42.7L284.97,42.39L284.22,41.89L284.26,41.51L283.35,41.27L283.44,40.65L284.25,39.65L283.64,38.96L284.08,38.63L284.77,39.3L285.46,39.37L285.66,38.51L285.24,36.97L287.27,36.54L287.43,35.35L288.12,34.03L287.86,33.77L287.03,34.01L286.92,33.6L287.54,33.22L288.36,33.27L288.27,32.78L288.8,32.07L288.2,30.51L289.67,29.86L290.03,28.24L291.12,27.28L291.42,26.26L293.26,26.49L294.02,25.22L293.52,23.72L293.96,23.34L294.68,23.79L294.99,23.4L294.49,23.38L294.5,23L295.32,22.46L295.63,22.73L296.2,22.58L296.07,21.81L296.9,21.62L296.32,21.13L296.63,20.65L297.13,21.33L297.65,21.2L297.64,20.65L297.05,20.43L297.28,20.05L297.06,19.71L297.61,19.6L297.36,19.07L297.78,19.13L297.37,18.74L297.9,18.44L297.39,17.7L297.68,17.57L297.87,18.13L298.21,18.16L297.71,16.89L298.34,16.8L298.28,16L298.71,15.92L298.67,16.34L299.52,16.64L302.22,15.93L303.29,15.96L304.76,15.3L305.41,16.54L307.19,16.96L307.14,17.51L307.63,18.11L308.58,18.58L310.03,18.02L310.78,16.44L310.54,16.14L310.95,15.13L313.02,14.26L312.76,13.59L313.66,13.13L315.25,13.15L315.85,14.35L316.56,14.49L317.58,13.99L320.48,14.62L322.75,14.6L324.16,15.02L324.43,15.65L326.44,14.7L327.63,15.51L329.34,14.86L330.52,15.28L332.42,16.65L332.32,17.21L331.84,17.75L331.12,17.91L331.39,18.28L330.97,18.44L332.86,17.97L337.03,19.01L337.18,18.41L338.34,18.48L338.84,17.03L340.48,16.97L341.43,16.22L342.42,16.04L343.71,15.2L343.8,14.28L344.59,14.14L344.68,13.54L346.27,12.84L346.17,12.3L344.9,12.53L345.61,10.43L344.83,8.73L345.55,7.52L346.75,7.64L347.29,7.26L346.92,6.67L347.15,5.62L346.45,5.62L345.86,3.66L345.91,2.82L346.29,2.42L347.54,2.38L348.66,3.16L349.52,2.92L350.35,3.65L351.06,2.89L352.44,3.01L353.46,4.4L354.4,4.13L356.96,6.06L357.57,7.19L359.42,6.2L359.74,6.68L360.83,6.31L361.45,6.58L362.17,5.55L363.71,5.81L363.81,7.19L364.51,7.36L366.38,5.85L367.48,5.88L367.76,5.04L369.09,4.03L369.69,2.86L370.07,3.05L370.12,3.53L369.75,3.74L369.97,4.19L371.53,2.92L372.18,1.89L373.34,2.15L373.41,0.39L374.01,0.32L374.15,0z"/>
	</g>
</svg>