<?xml version="1.0" encoding="utf-8"?>
<svg xmlns="http://www.w3.org/2000/svg" xmlns:amcharts="http://amcharts.com/ammap" xmlns:xlink="http://www.w3.org/1999/xlink" version="1.1" viewBox="366.35 170.22 134.58999999999997 88.04999999999998" >

    <g>
        <path id="UA-12" title="Dnipropetrovsk" fill="black" d="M397.91,185.17L399.16,186.35L400.99,187.1L402.17,187.08L402.74,188.21L403.85,189.05L405.6,189.26L405.82,189.67L405.63,190.79L405.97,191.35L406.79,191.69L407.47,191.5L408.29,192.34L409.34,192.63L410.04,193.32L411.22,193.34L411.55,193.6L411.5,194.37L412.22,193.19L412.05,192.12L413,191.18L412.49,190.8L411.61,191.15L411.49,189.34L413.25,189.19L412.47,188.73L412.52,188.2L413.3,188.12L413.32,187.58L412.9,187.52L412.93,186.71L412.02,186.05L411.76,185.42L412.15,183.1L413.49,181.02L412.6,180.16L413.49,179.36L413.86,178.44L415.62,177.33L415.15,175.27L417.2,176.75L417.6,176.41L418.33,176.97L418.97,176.49L420.17,177.29L420.9,176.91L420.65,175.92L421.01,175.17L421.58,175.35L421.53,174.38L422.19,174.43L422.77,173.77L423.55,173.56L423.96,174.07L424.42,173.98L424.94,173.26L425.47,173.4L426.6,172.68L427.42,172.82L427.44,171.29L428.12,170.95L429.04,171.36L429.5,170.98L429.34,170.6L430.61,170.41L430.76,170.74L431.96,171.11L431.65,171.59L430.92,171.52L430.82,171.89L431.92,172.49L432.56,172.08L432.97,170.75L433.7,170.22L435.71,172.04L435.72,172.6L435.99,172.47L435.99,172.47L436.82,172.12L437.17,171.18L438.05,171.84L438.24,172.76L438.52,172.09L439.52,171.63L440.19,172.43L440.9,171.85L441.9,171.93L442.46,172.34L441.94,172.51L441.9,172.83L443.11,173.69L441.75,173.96L441.79,174.52L443.08,174.83L443.34,174.24L444.04,174.35L444.64,175.36L445.78,175.69L445.88,176.21L445.54,176.59L447.04,177.32L446.97,177.72L448.52,178.95L448.91,178.72L448.91,179.37L450.81,180.41L451.51,181.17L451.86,181.12L451.75,181.65L452.43,181.4L452.54,180.92L452.74,181.34L454.41,181.61L455.48,181L456.59,181.01L456.67,181.89L458.45,181.77L459.34,182.8L459.84,182.04L460.29,182.03L460.45,182.55L461.15,182.34L461.99,182.56L462.25,183.66L462.59,183.87L463.27,182.78L464.02,182.73L464.31,182.27L465.09,182.02L465.28,181.44L466.31,181.69L467.15,180.2L468.75,181.74L468.38,182.22L470.66,184.45L469.66,185.92L470.56,186.67L469.89,187.67L471.74,188.61L471.39,189.97L473.37,189.97L474.58,191.15L475.11,191L475.49,191.29L475.17,192.08L473.93,192.19L474.7,193.07L474.07,194.31L478.81,197.66L477.79,199.63L480,201.28L478.41,203.58L479.28,204.22L480.21,203.02L481.19,203.74L481.22,204.09L482.53,202.52L482.11,202.23L483.5,200.25L484.38,199.95L483.84,199.85L484.19,199.34L483.65,199.14L483.79,198.91L484.28,198.99L485.56,197.5L488.33,199.88L488.8,199.91L489.24,200.63L491.46,200.27L491.38,199.92L492.08,199.8L492.06,199.44L494.28,199.34L494.28,199.34L494.51,200.85L495.62,200.64L496.56,200.86L496.72,202.27L498.32,202.28L498.72,203.2L499.73,203.51L499.9,204.66L498.04,204.99L498.18,206.42L497.38,206.64L497.54,208.7L497.92,208.73L498.07,210.06L497.58,209.92L497.1,210.22L497.43,210.45L497.02,210.63L497.23,212.35L496.77,212.73L496.63,213.59L496.93,215.35L498.68,215.15L498.78,215.68L500.06,215.51L500.94,221.4L500.06,221.38L499.87,221.72L499.46,221.52L499.21,222.24L498.76,221.92L499.53,227.16L498.86,228.51L498.27,228.5L498.1,229.5L496.67,229.11L496.42,228.51L495.42,228.8L494.98,228.24L494.52,228.54L494.31,227.62L493.51,226.87L493.3,227.19L492.1,226.64L491.64,226.75L491.33,226.16L490.84,226.53L490.84,226.53L491.2,226.53L491.2,226.53L490.27,227.03L489.59,226.59L489.65,226.88L488.84,227.13L489.02,228.54L488.59,229.14L489.17,230.15L488.47,230.59L489.26,231.21L488.77,231.35L489.04,233.26L490.5,233.09L490.9,235.16L489.24,235.14L489.24,235.6L487.6,235.92L487.84,237.29L488.78,237.23L489.02,238.79L489.02,238.79L486.96,239.31L486.89,239.73L484.8,239.99L482.05,239.71L481.95,239.28L480.31,239.15L480.34,240.13L478.6,240.38L478.21,239.61L475.87,239.6L475.51,239.28L475.77,238.24L474.43,238.82L471.75,238.83L471.63,237.92L473.14,237.92L473.57,236.01L472.92,234.98L473.28,234.67L472.91,234.11L472.09,234.65L471.71,232.89L470.98,233.14L470.93,232.88L471.63,232.51L471.37,231.12L470.63,230.93L470.39,230.3L471.46,229.89L471.03,228.14L468.43,228.74L468.82,228.13L468.58,227.91L468.31,228.12L468.27,227.48L468.73,227.19L468.69,226.8L468.1,226.38L462.99,227.69L462.71,226.1L460.55,226.27L459.25,224.09L453.09,227.25L452.96,226.33L446.81,224.89L445.28,223.8L443.77,224.3L442.86,223.86L441.2,224.53L438.83,224.46L437.4,224.99L436.62,226.16L435.07,226.56L434.89,226.23L432.54,226.53L432.55,224.51L431.38,224.67L431.31,224.38L430.56,224.41L431.23,228.34L430.03,228.6L430.26,230.38L430.64,230.41L430.94,231.98L432.18,231.89L432.54,234.42L431.34,234.7L431.13,234.13L430.29,234.45L430.37,235.09L428.69,235.32L429.2,237.87L430.67,237.19L431.01,238.55L431.95,238.51L432.08,239.59L431.31,240.15L431.75,243.13L433.91,242.75L434.12,244.07L433.83,244.18L433.9,245.51L433.06,245.61L433.31,247.29L432.2,247.61L432.53,249.42L433.06,249.39L433.47,251.06L433.2,251.53L432.99,251.25L433.04,251.77L432.66,251.93L433.49,252.33L433.1,252.81L433.89,252.68L434.15,253.64L433.87,254.49L432.57,255.11L430.98,255.18L426.26,254.08L423.94,253.17L421.8,253.01L416.6,254.74L412.28,255.2L409.12,256.6L406.25,257.31L406.25,257.31L401.46,258.27L400.53,257.49L399.16,255.4L389.43,256.96L389.14,255.53L387.62,256.04L387.64,253.38L388.15,253.2L388.27,252.55L387.74,252.43L387.22,251.18L383.8,251.87L384.11,254.01L378.74,255.03L378.81,255.65L379.53,256.55L378.26,257.09L378.2,256.1L377.23,255.55L377.32,254.13L377.07,253.94L375.88,254.68L374.94,254.61L375.06,253.88L375.67,253.25L375.55,252.38L373.39,252.88L370.78,252.26L370.78,252.26L370.83,251.3L366.35,251.54L367.55,250.31L366.74,245.11L370.08,244.25L369.94,243.12L369.59,243.06L369.38,242.1L369.95,241.84L369.63,239.59L370.42,239.36L370.03,237.1L370.54,236.89L370.36,235.18L368.27,235.58L367.83,235.36L367.42,234.49L367.89,234.3L367.45,232.32L367.8,231.68L367.8,231.68L368.37,231.9L368.44,230.68L368.9,230.3L369.07,229.28L371.38,229.01L371.26,227.73L371.47,227.96L372.56,227.81L372.86,228.93L372.49,227.18L375.33,226.4L375.25,225.79L375.67,225.73L375.62,225.37L373.95,225.8L373.83,225.11L375.38,224.73L374.91,222.42L375.91,222.35L375.99,223.43L376.89,223.35L377.03,225.84L377.52,225.95L377.95,225.06L378.39,225.07L377.58,223.55L378.33,223.46L378.37,223.09L382.27,222.48L382.2,221.62L383.92,221.3L383.94,220.99L384.53,220.76L384.65,219.47L386.15,219.04L385.65,217.13L385.06,217.04L385.13,214.42L383.75,214.49L383.74,213.5L383.24,213.2L383.61,212.54L383.53,211.47L384.52,211.19L383.67,203.45L384.04,203.29L384.01,202.85L384.94,202.82L384.91,202.28L387.42,201.95L387.61,202.7L388.73,202.35L388.36,200.76L389.67,200.73L389.97,201.39L392.78,199.81L393.46,199.34L393.26,197.84L394.77,197.55L394.92,196.19L393.07,196.5L392.95,195.89L392.39,195.96L390.79,194.4L389.69,194.5L388.61,194.11L388.25,192.91L387.73,193.12L387.5,192.79L387.4,190.61L388.07,190.48L388.61,191L389.88,190.81L390.77,189.59L391.07,189.95L391.98,189.91L392.21,190.92L392.55,190.99L393.48,190.55L393.83,190.85L394.58,190.72L394.54,190.42L395.09,190.29L395.31,191.75L396.43,191.88L396.42,190.36L396.93,188.44L397.29,188.26z"/>
	</g>
</svg>