<?xml version="1.0" encoding="utf-8"?>
<svg xmlns="http://www.w3.org/2000/svg" xmlns:amcharts="http://amcharts.com/ammap" xmlns:xlink="http://www.w3.org/1999/xlink" version="1.1" viewBox="47.59 151.26 71.36 93.74000000000001" >

    <g>
        <path id="UA-26" title="Ivano-Frankivsk" fill="black" d="M47.79,194.14L47.59,193.42L48.8,191.28L47.98,189.21L48.62,188.04L48.67,187.04L49.81,186.51L49.67,186.13L48.58,185.74L48.23,184.8L49.1,182.61L48.4,181.53L50.21,179.55L50.38,178.86L50.73,178.58L51.23,178.9L51.89,178.4L52.6,175.25L53.28,174.88L53.69,175.15L54.89,173.79L55.41,174.17L55.69,174.02L56.27,174.69L57.62,174.29L59.75,174.97L60.03,174.43L62.05,173L63.35,173.52L63.68,174.17L65.07,172.57L67.76,172.97L68.12,173.54L68.63,173.62L68.88,172.77L69.71,173.05L70.05,172.52L70.86,172.74L72.49,171.46L75.13,170.6L75.94,170.47L77.07,171.45L77.68,171.19L77.66,170.23L78.11,169.4L77.88,169.04L78.27,168.27L76.07,168.42L74.81,168.13L74.48,167.57L74.93,167.15L75.33,165.72L74.42,165.31L73.27,165.52L73.18,164.57L73.22,163.83L74.57,164.17L75.19,163.58L75.78,164.08L76.55,162.82L76.31,161.86L77.74,160.58L76.16,159.84L75.55,157.93L75.95,157.33L76.91,157.16L77.12,155.76L76.66,154.63L77.02,154.09L78.15,154L77.81,152.43L78.84,151.78L78.87,151.47L79.28,151.61L79.14,151.26L80.03,151.45L80.73,152.12L80.24,152.44L80.6,153.04L81.4,153.12L82.43,152.49L83.23,153.51L84.65,154.33L85.24,153.94L86.73,154.6L87.5,154.48L87.5,154.48L88.88,157.58L89.4,160.19L89.94,160.46L90.63,160.12L91.05,160.42L91.39,161.6L92.16,162.13L91.07,163.75L91.16,165.35L91.58,165.79L91.69,166.66L94.56,168.09L92.12,170.96L92.14,171.82L93.63,173.54L95.59,173.74L96.34,174.14L96.03,175.94L96.56,176.08L96.61,176.57L94.09,175.97L93.69,177.42L95.81,179.59L95.78,180.55L97.52,179.64L99.96,181.17L100.79,180.36L100.6,182L101.85,183.01L100.89,184.01L101.62,186.9L102.23,187.11L102.61,186.84L102.51,185.52L103.51,184.61L103.3,183.93L103.97,184.17L104.81,183.68L104.63,186.21L103.94,187.98L104.54,187.98L105.2,186.94L106.36,187.22L106.85,188.14L107.64,188.03L107.91,188.33L107.53,189.03L105.75,189.05L105.07,189.51L104.92,190.32L105.48,191.22L106.4,191.31L106.84,190.16L107.54,189.42L108,189.49L108.5,190.16L108.88,190.06L108.57,187.43L109.36,187.4L111.43,188.21L111.73,187.83L111.36,186.92L111.61,186.71L112.22,186.97L112.77,187.58L112.1,188.38L112.28,188.81L113.99,190.11L115.32,190.28L117.16,192.16L118.55,193.03L118.41,193.51L117.51,194.2L117.63,194.65L118.95,195.17L118.91,195.67L117.88,196.56L118.17,196.94L118.17,196.94L116.64,199.13L116.89,199.47L116.84,201.22L117.33,202.17L117.28,208.41L118.01,210.91L117.66,211.76L115.38,211.76L114.57,211.01L112.75,210.71L111.67,211.13L110.38,211.11L108.2,212.03L105.73,214.56L103.07,218.39L101.75,218.64L100.5,219.74L100.88,220L100.79,220.54L101.59,221.2L101.51,221.87L101.18,222.04L100.28,221.68L99.75,221.92L100,222.85L99.14,223.06L99.11,224.38L98.19,224.61L98.06,225.47L96.93,225.02L96.38,225.25L96.2,225.61L96.67,226.71L93.92,229.72L94.16,230.63L93.74,231.33L94.23,232.93L94.06,233.33L94.38,233.49L94.1,233.83L95.38,235.24L95.49,236L95,236.2L95.11,236.7L96.34,237.83L96.25,238.2L96.76,238.39L96.29,239.77L95.07,241.49L94.22,244.84L94.22,244.84L92.92,245L92.68,243.54L91.29,242.17L91.31,241.53L90.81,240.9L91.03,240.19L89.53,239.94L89.35,239.35L88.95,239.22L88.47,239.68L87.91,239.01L86.89,239.13L86.78,238.5L85.74,237.94L85.55,237.34L85.8,236.37L85.06,235.18L84.56,234.94L84.25,233.66L83.62,233.58L83.3,233.86L82.74,232.87L82.14,232.73L82.14,232.73L82.54,230.09L84.23,228.63L83.3,226.68L81.97,225.84L81.75,225.1L80.99,224.81L80.05,223.08L80.64,222.22L80.34,221.68L80.8,221.26L80.69,220.94L81.52,220.05L80.86,219.28L79.47,218.7L79.71,217.34L79.45,216.83L78,215.72L77.08,214.33L75.4,213.45L74.91,212.85L75.08,212.02L74.5,211.51L72.72,211.14L72.78,211.84L71.7,213.41L71.28,212.97L69.11,212.52L69.13,212.16L68.11,211.47L68.2,210.8L67.78,210.38L67.92,209.14L67.4,208.57L67.31,207.61L67.85,206.82L67.34,206.24L67.29,205.01L67.61,204.47L67.17,204.01L66.13,204.44L65.67,205.13L65.3,204.89L64.26,205.66L62.97,205.42L62.26,207.04L62.36,207.51L62,207.8L60.36,207.38L59.9,206.52L60.48,203.48L59.83,202.6L57.94,202.98L56.12,201.12L55.92,198.8L53.12,198.65L50.84,196.41L50.79,195.58L50.36,195.2L49.54,195.18L49.25,194.52z"/>
	</g>
</svg>