<?xml version="1.0" encoding="utf-8"?>
<svg xmlns="http://www.w3.org/2000/svg" xmlns:amcharts="http://amcharts.com/ammap" xmlns:xlink="http://www.w3.org/1999/xlink" version="1.1" viewBox="430.55 104.03 109.46999999999997 100.19" >

    <g>
        <path id="UA-63" title="Kharkiv" fill="black" d="M519.27,104.03L519.6,104.17L519.42,105.37L518.77,105.66L518.8,108.01L519.47,109.41L520.13,109.68L520.73,110.55L521.89,110.94L522.52,112.01L523.42,111.53L524.63,111.84L524.28,112.86L524.29,115.64L523.87,116.73L524.77,118.13L524.82,119.02L527.05,121.44L528.64,124.07L530.05,123.8L531.91,125.16L533.2,125.47L534.32,126.23L535.77,129.35L536.79,130.08L537.08,129.93L538.39,131.75L537.71,132.14L537.65,132.89L538.02,133.44L538.02,133.44L540.02,136.2L539.41,136.78L537.64,136.79L537.27,138.04L538.76,139.1L538.75,139.49L538.12,139.59L536.87,141.16L536.13,140.42L535.33,142.27L536.1,143.44L536.63,143.1L537.41,143.19L537.53,143.6L536.98,143.89L537.39,144.19L537.86,145.85L538.46,146.12L536.39,146.69L536.85,147.7L536.15,147.92L536.05,148.5L535.06,148.57L534.88,149.45L535.25,150.68L533.57,150.54L533.07,151.67L534.49,151.88L534.35,152.34L533.08,153.3L531.86,153.21L531.48,154.61L531.91,155.01L531.71,157.12L532.81,157.11L532.79,158.56L533.45,159.3L532.8,163.22L532.99,164.14L535.15,164.61L535.49,165.55L533.52,166.3L533.93,166.84L532.38,167.56L532.55,168.03L532.55,168.03L531.92,168.73L531.69,169.93L531.04,169.87L531.02,169.61L530.02,169.83L523.92,168.25L522.02,168.52L521.57,169.03L521.57,169.03L520.06,170.51L520.06,170.51L523.68,171.86L524.57,172.89L521.51,174.53L519.85,174.81L519.56,175.09L520.04,175.55L520.21,176.64L519.22,177.09L519.31,177.34L518.82,177.16L518.34,177.5L518.29,177.21L517.2,177.07L516.81,177.59L516.13,177.72L516.29,178.99L515.77,178.94L515.68,180.58L515.23,180.63L514.69,180.02L514.55,180.48L513.62,180.9L513.99,181.11L513.76,181.46L513.46,181.28L513.07,181.74L513.91,182.47L513.56,183.24L514.31,183.42L514.15,184.33L512.15,184.26L512.07,185.07L510.75,185.04L510.28,186.01L509.58,186.5L509.54,189.8L507.88,188.85L508.02,188.36L506.39,187.93L505.97,188.9L505.54,188.81L505.35,189.82L503.87,189.61L503.7,190.4L503.35,190.37L502.93,191.02L503.84,191.77L503.88,192.17L504.54,192.24L504.14,193.07L501.97,190.8L498.18,190.42L497.62,191.84L497.04,191.9L496.83,191.56L495.38,191.48L494.62,191.08L494.58,190.46L493.58,190.24L492.57,191.79L492.68,192.1L493.28,192.1L493.42,193.41L494.16,195.33L493.87,195.9L493.45,195.98L493.71,198.01L494.28,199.34L494.28,199.34L492.06,199.44L492.08,199.8L491.38,199.92L491.46,200.27L489.24,200.63L488.8,199.91L488.33,199.88L485.56,197.5L484.28,198.99L483.79,198.91L483.65,199.14L484.19,199.34L483.84,199.85L484.38,199.95L483.5,200.25L482.11,202.23L482.53,202.52L481.22,204.09L481.19,203.74L480.21,203.02L479.28,204.22L478.41,203.58L480,201.28L477.79,199.63L478.81,197.66L474.07,194.31L474.7,193.07L473.93,192.19L475.17,192.08L475.49,191.29L475.11,191L474.58,191.15L473.37,189.97L471.39,189.97L471.74,188.61L469.89,187.67L470.56,186.67L469.66,185.92L470.66,184.45L468.38,182.22L468.75,181.74L467.15,180.2L466.31,181.69L465.28,181.44L465.09,182.02L464.31,182.27L464.02,182.73L463.27,182.78L462.59,183.87L462.25,183.66L461.99,182.56L461.15,182.34L460.45,182.55L460.29,182.03L459.84,182.04L459.34,182.8L458.45,181.77L456.67,181.89L456.59,181.01L455.48,181L454.41,181.61L452.74,181.34L452.54,180.92L452.43,181.4L451.75,181.65L451.86,181.12L451.51,181.17L450.81,180.41L448.91,179.37L448.91,178.72L448.52,178.95L446.97,177.72L447.04,177.32L445.54,176.59L445.88,176.21L445.78,175.69L444.64,175.36L444.04,174.35L443.34,174.24L443.08,174.83L441.79,174.52L441.75,173.96L443.11,173.69L441.9,172.83L441.94,172.51L442.46,172.34L441.9,171.93L440.9,171.85L440.19,172.43L439.52,171.63L438.52,172.09L438.24,172.76L438.05,171.84L437.17,171.18L436.82,172.12L435.99,172.47L435.99,172.47L434.74,167.38L436.21,163.46L436.61,163.15L437.9,163.8L438.44,164.65L439.74,164.57L440.68,164.94L443.51,164.61L443.75,164.8L443.36,165.11L444.76,165.96L445.17,165.03L444.9,163.76L448.1,159.75L447.19,159.37L447.63,157.14L446.06,156.6L446.74,154.21L451.68,155.16L451.79,153.62L449.9,152.95L449.86,151.69L449.09,151.52L449.31,151.13L451.83,150.58L450.44,147.01L449.76,146.1L450.04,145.35L447.31,145.76L446.6,144.94L444.45,144.7L443.59,144.22L444.03,143.42L443.58,143.2L444.08,142.88L443.98,142.12L443.06,142.01L442.47,141.36L442.53,139.51L442.2,138.7L442.89,138.44L442.72,137.1L440.23,135.64L439.58,135.92L437.71,135.62L437.22,134.22L436.48,134.2L435.69,134.94L434.95,134.1L434.36,134.22L433.4,133.43L432.49,131.6L431.79,131.79L431.47,131.48L430.55,128.88L434.14,124.14L433.15,122.79L433.05,121.26L433.39,120.17L433.39,120.17L434.43,119.81L434.06,118.46L435.32,118.58L435.54,118.89L435.66,118.55L436.36,118.75L436.4,119.38L436.84,119.48L437.8,118.16L437.75,117.4L439.18,116.78L440.45,115.42L441.85,116.12L442.03,115.64L443.3,116.24L443.45,115.81L444.1,115.83L444.39,114.27L445.62,114.33L446.52,113.72L445.42,112.97L446.54,111.41L448.26,112.66L448.2,111.41L449.1,111.39L449.73,110.68L450.28,111.58L450.9,111.64L452.12,112.76L452.44,112.46L453.11,112.9L453.46,112.32L452.87,111.54L454.75,111.41L455.45,110.88L456.65,111.17L456.51,111.43L456.99,111.78L457.59,111.78L457.73,111.2L458.23,111.05L458.41,110.21L457.62,110.01L457.8,109.65L457.8,109.65L460.4,109.46L462.56,107.21L462.67,106.58L462.34,106.25L463.6,105.4L463.78,105.83L464.28,105.59L464.83,105.92L465.5,104.95L466.77,105.38L471.47,104.44L474.66,105.49L475.19,107.03L475.69,106.8L477.25,109.19L478.72,110.35L478.4,111.12L479.28,112.8L481.66,113.03L482.06,112.78L481.87,112.42L482.97,111.9L483.87,110.87L484.22,111.82L485.62,111.82L486.13,112.52L487.04,112.69L487.08,113.15L487.81,113.37L489.07,113.17L489.29,113.68L488.71,113.74L488.85,114.38L488.27,115.02L489.92,116.35L491.23,116.63L492.16,115.68L492.57,114.12L492.95,114.25L493.47,113.61L494.54,113.38L495.28,112.28L497.42,111.65L498.4,110.68L500.76,109.85L503.85,109.78L504.65,110.11L506.6,109.78L506.56,109.37L507.63,109.23L508.13,109.55L512.9,107.17L513.6,105.77L514.36,105.2L517.04,105.43z"/>
	</g>
</svg>