<?xml version="1.0" encoding="utf-8"?>
<svg xmlns="http://www.w3.org/2000/svg" xmlns:amcharts="http://amcharts.com/ammap" xmlns:xlink="http://www.w3.org/1999/xlink" version="1.1" viewBox="135.23 96.84 59.75 111.38999999999999" >

    <g>
        <path id="UA-68" title="Khmelnytskyi" fill="black" d="M138.2,118.68L138.58,119.04L140.48,118.66L141.04,117.8L141.09,116.86L141.74,116.08L142.98,114.97L143.64,114.91L144.17,114.24L147.84,114.33L147.46,114.13L147.42,113.41L148.15,113.36L147.93,112.91L148.45,112.5L148.58,111.81L149.2,111.95L149.18,111.46L149.66,111.45L149.48,110.78L150.62,110.28L151.12,108.8L152.69,108.97L153.11,107.52L153.83,107.66L154.23,106.05L154.84,106.21L155.03,104.62L155.7,104.72L155.38,104.01L155.65,102.97L155.99,102.87L155.85,103.82L157.38,103.48L157.5,103.06L156.58,103.35L156.71,102.34L157.02,102.33L157.29,101.65L158.44,101.62L158.69,100.69L159.01,100.59L159.7,101.32L161.24,99.38L162.3,100.11L163.96,100.55L164.2,99.98L164.9,99.69L165.21,98.63L166.97,99.02L167.06,97.76L168.53,96.84L169.03,97.18L169.04,98.6L171.19,98.5L171.19,98.5L171.68,100.09L173.38,101.08L173.65,102.27L174.73,102.19L174.48,104L173.35,105.93L173.07,107.39L175.39,108.79L175.31,110.76L177,110.79L177.59,111.25L178.78,112.47L178.21,112.68L178.35,113L177.81,112.94L178.9,113.92L178.92,113.65L179.6,113.71L179.61,114.46L180.86,114.69L181.19,115.57L182.16,116.27L182.49,116.25L182.97,115.24L184.81,114.63L184.69,116.92L185.17,116.82L185.71,119.18L186.34,119.09L186.14,118.31L187.06,118.02L187.1,119.19L187.64,119.85L186,120.58L185.78,121.72L186.33,122.15L185.75,122.22L185.89,122.76L185.43,123.64L187.19,124.14L187.62,126.27L187.18,126.84L186.29,126.25L185.25,127.95L184.09,127.19L183.64,127.16L183.5,127.57L183.13,127.62L183.16,128.64L184,130.91L183.46,131.1L183.4,131.71L183.07,131.77L183.09,133.28L183.54,133.38L183.9,132.98L184.78,134.03L185.76,133.9L185.29,134.75L185.76,136.06L185.63,136.68L186.86,138.89L187.2,138.28L189.22,138.63L188.36,140.31L189.36,140.51L191.29,142.52L191.96,142.41L192.17,141.6L192.8,141.47L192.8,141.47L192.87,142.39L191.84,143.45L192,143.86L190.41,144.08L190.52,145.75L192.01,146.85L192.04,147.86L191.97,148.44L191.57,148.19L191.29,149.1L190.71,149.37L190.22,150.33L191.45,151.49L191.35,152.79L190.75,153.34L190.11,152.54L189.54,152.86L189.53,154.6L191.1,155.04L190.89,155.56L190.43,155.53L190.16,156.28L190.16,156.28L189.75,156.87L189.96,157.49L189.96,157.49L190.51,157.25L191.41,157.67L191.83,157.5L192.56,158.32L193.34,158.02L192.77,159.87L192.04,160.17L192.1,160.59L192.63,160.68L192.64,161.11L192.1,161.21L192.15,161.79L193.1,162.15L193.67,163.3L193.44,164.17L193.82,164.86L193.78,165.8L193.33,166.49L194.17,167.46L193.57,167.97L193.93,169.15L194.55,169.08L194.77,169.36L194.98,170.54L194.48,171.05L193.51,171.33L192.79,170.82L192.33,170.89L192.18,170.45L191.42,171.06L190.93,170.09L190.98,171.35L190.15,171.93L190.25,172.3L189.62,172.94L188.8,172.58L188.21,172.98L186.27,171.54L185.99,171.88L184.73,172.1L184.86,173.23L184.16,173.92L182.66,172.93L182.75,173.88L181.77,173.45L181.29,173.86L181.57,174.73L180.84,175.61L181.5,176.52L179.43,176.61L177.48,179.73L178.11,180.13L177.91,180.69L178.69,181.68L178.66,182.52L177.92,183.24L177.84,185.01L178.67,186.29L178.7,188.44L178.7,188.44L178.7,189.02L178.7,189.02L178.49,189.82L179.04,190.67L178.32,191.74L178.4,192.1L177.73,192.18L177.76,192.69L178.46,193.5L178.06,194.18L178.61,195.73L177.75,196.88L177.18,199.15L177.18,199.15L176.5,199.21L176.2,200.35L175.41,200.72L174.08,199.52L172.89,199.54L172.62,200.31L173.53,201.56L172.89,202.47L170.13,201.58L169.32,201.92L168.56,202.82L167.46,202.87L164.57,202.18L164.25,201.28L163.48,201.92L162.14,201.99L161.27,203.34L160.5,203.69L159.17,202.8L158.5,201.58L158.7,200.44L157.97,200.16L157.11,200.9L157.71,202.39L157.14,203.42L156.46,203.32L156.11,201.74L155.43,201.29L155.13,201.73L155.76,202.35L155.91,203.09L155.8,203.8L155.39,204.15L154.56,204.12L153.04,202.65L152.25,202.64L151.75,203.02L151.61,203.55L151.93,203.97L153.58,203.72L153.76,204.51L154.75,205.41L154.95,206.09L154.39,206.5L153.03,206.53L152.23,205.47L151.45,205.42L151.34,206.07L151.96,207.71L151.06,208.23L149.45,207.9L147.19,203.52L145.74,203.87L145.74,203.87L145.48,203.4L144.59,203.69L143.7,202.55L143.33,203.61L142.93,203.62L143.1,202.83L142.14,202.3L142.88,201.37L142.35,201.45L141.72,200.15L140.66,199.55L141.67,199.19L141.52,198.86L140.54,198.74L141.19,197.9L139.92,198.28L140.08,197.12L139.1,197.19L139.06,196.4L138.44,196.5L138.28,196.19L138.88,195.65L138.56,195.07L139,193.66L138.3,192.85L138.95,193.03L139.04,192.79L138.53,192.4L138.74,191.63L138.04,191.45L137.78,190.56L138.03,190.33L138.71,190.93L138.39,189.75L139.14,190L139.49,189.56L138.69,189.42L138.11,187.82L137.6,187.55L137.98,186.34L137.69,185.46L138.28,184.79L137.9,184.66L137.37,185.07L136.98,184.34L137.39,184.34L137.29,183.49L137.76,182.52L136.74,181.56L137.93,180.99L136.97,180.75L136.77,180.34L137.23,179.99L137.82,180.19L138.02,179.83L137.45,178.99L137.77,178.41L137,177.39L138.01,176.48L137.22,176.28L137.61,175.09L137.37,173.57L137.63,173.3L137.15,171.94L137.87,171.83L137.15,171.3L137.31,170.79L136.97,170.02L137.32,169.25L137.16,168.82L137.57,168.73L137.61,167.58L138.99,167.6L138.96,167.07L139.45,166.6L138.94,165.86L139.39,165.95L139.19,165.42L139.55,165.26L139.13,164.8L139.16,164.07L138.4,163.34L138.41,162.23L138.96,162.31L138.61,161.65L138.97,161.13L138.21,160.67L138.64,159.5L137.32,157.95L137.23,155.32L135.57,153.73L136.7,151.71L137.4,151.28L137.63,151.81L138.14,151.63L137.76,150.15L137.99,149.73L137.51,148.62L138.4,147.84L138.62,147.18L139.46,147.24L139.49,146.44L140.01,146.21L139.9,145.58L138.87,144.41L137.2,143.33L137.96,142.1L139.01,141.49L138.82,139.97L138.33,139.66L138.02,138.15L136.74,136.23L137.54,135.12L136.17,134.41L136.11,134.07L135.23,133.63L135.23,133.22L136.28,132.37L135.63,130.49L135.74,129.47L136.41,128.95L136.45,128.48L137.52,128.57L137.87,127.32L136.73,126.89L137.44,126.3L138.08,126.27L138.1,125.77L138.41,125.77L138.25,125.03L137.57,124.56L137.54,123.01L140,122.84L140,122.26L138.68,121.25L138.97,120.65L138.28,120.68L137.82,120.11L138.13,119.82L137.91,118.98z"/>
	</g>
</svg>