<?xml version="1.0" encoding="utf-8"?>
<svg xmlns="http://www.w3.org/2000/svg" xmlns:amcharts="http://amcharts.com/ammap" xmlns:xlink="http://www.w3.org/1999/xlink" version="1.1" viewBox="257.69 167.51 140.22000000000003 76.24000000000001" >

    <g>
        <path id="UA-35" title="Kirovohrad" fill="black" d="M362.8,167.51L363.94,168.06L365.29,168.21L366.76,167.57L367.24,168.01L367.11,169.17L367.45,169.7L368.21,169.79L368.84,170.62L371.42,170.73L372.86,172.99L372.57,173.67L372.95,174.27L373.08,175.94L373.95,175.78L374.48,176.32L375.99,176.2L375.97,172.84L375.66,171.8L375.89,171.76L376.55,172.57L376.65,173.36L376.96,173.22L377.87,174.06L377.44,175.16L376.63,175.44L377.19,175.95L378.03,176.12L377.91,176.45L378.52,176.97L378.36,177.71L378.87,178.83L377.8,179.99L378.8,182.17L378.29,182.36L378.48,182.74L379.57,182.57L381.24,183.87L381.43,182.39L382.03,182.38L382.05,182.7L382.28,182.41L383.58,182.57L383.81,182.63L383.71,184.49L385.84,183.72L386.21,184.65L387.03,184.69L386.82,184.37L387.76,184.26L388.37,183.33L387.97,183.11L389.14,182.11L389.22,181.5L390.16,181.25L390.81,182.38L391.82,183.23L393.39,182.95L395.26,183.37L397.91,185.17L397.91,185.17L397.29,188.26L396.93,188.44L396.42,190.36L396.43,191.88L395.31,191.75L395.09,190.29L394.54,190.42L394.58,190.72L393.83,190.85L393.48,190.55L392.55,190.99L392.21,190.92L391.98,189.91L391.07,189.95L390.77,189.59L389.88,190.81L388.61,191L388.07,190.48L387.4,190.61L387.5,192.79L387.73,193.12L388.25,192.91L388.61,194.11L389.69,194.5L390.79,194.4L392.39,195.96L392.95,195.89L393.07,196.5L394.92,196.19L394.77,197.55L393.26,197.84L393.46,199.34L392.78,199.81L389.97,201.39L389.67,200.73L388.36,200.76L388.73,202.35L387.61,202.7L387.42,201.95L384.91,202.28L384.94,202.82L384.01,202.85L384.04,203.29L383.67,203.45L384.52,211.19L383.53,211.47L383.61,212.54L383.24,213.2L383.74,213.5L383.75,214.49L385.13,214.42L385.06,217.04L385.65,217.13L386.15,219.04L384.65,219.47L384.53,220.76L383.94,220.99L383.92,221.3L382.2,221.62L382.27,222.48L378.37,223.09L378.33,223.46L377.58,223.55L378.39,225.07L377.95,225.06L377.52,225.95L377.03,225.84L376.89,223.35L375.99,223.43L375.91,222.35L374.91,222.42L375.38,224.73L373.83,225.11L373.95,225.8L375.62,225.37L375.67,225.73L375.25,225.79L375.33,226.4L372.49,227.18L372.86,228.93L372.56,227.81L371.47,227.96L371.26,227.73L371.38,229.01L369.07,229.28L368.9,230.3L368.44,230.68L368.37,231.9L367.8,231.68L367.8,231.68L367.38,228.61L366.06,229.32L365.71,229.02L364.8,229.23L364.85,229.52L363.26,229.52L363.8,230.15L364,231.87L361,232.39L360.59,231.47L357.23,232.04L357.39,233.82L358.68,233.56L359,234.54L355.9,235.11L356.02,235.83L356.71,235.78L356.98,237.42L356.29,237.54L356.44,238.34L356.78,238.58L355.98,240.15L348.82,241.59L348.28,241.62L348.05,240.99L346.16,241.6L344,239.87L341.88,240.4L341.89,241.41L341.3,241.56L341.54,243.12L339.28,243.58L339.08,243.05L338.54,243.75L338.22,243.27L337.73,243.34L337.53,241.89L336.84,241.98L336.39,240.84L335.87,240.88L335.66,240.29L332.54,240.71L332.6,241.33L328.3,241.91L328,240.27L329.39,239.97L328.92,239.01L328.98,237.98L329.89,237.93L329.66,235.22L328.84,235.39L328.5,232.93L326.47,233.33L326.25,233.14L325.39,233.87L324.68,229.79L324.74,229.31L326.42,228.89L325.96,225.89L323.51,226.34L323.17,225.04L321.68,225.24L321.38,224.26L319.73,224.57L319.68,225.75L319.15,226.02L318.83,225.57L318.31,225.65L318.57,227.62L317.21,227.69L317.15,228.15L316.65,228.47L316.53,227.75L315.96,227.79L316.2,226.87L316.88,226.6L316.45,224.55L314.15,224.98L314.17,225.41L313.33,225.6L312.93,224.41L312.36,225.04L310.98,225.35L310.79,224.23L307.94,225.16L307.4,222.44L306.72,222.54L306.05,221.98L306.46,221.28L305.52,220.01L304.76,219.88L304.68,219.42L301.84,219.86L301.71,219.37L299.28,219.86L299.63,221.64L297.72,221.77L297.49,222.69L296.61,223.05L296.16,222.7L295.15,222.98L294.85,221.85L294.21,221.9L293.79,221.48L293.76,222.52L293.05,222.62L292.74,221.45L290.57,221.64L290.42,221.16L288.03,221.75L288.28,222.44L287.23,222.72L287.07,223.25L284.85,223.28L283.87,222.17L283.08,223.16L282.8,222.55L278.61,222.18L276.38,223.77L276.38,223.77L275.09,223.56L274.29,223.88L272.1,223.16L270.29,223.14L269.69,223.71L267.95,223.27L267.15,221.81L266.27,221.78L266.42,220.57L265.75,219.44L265.21,220.12L263.76,219.34L262.35,221.74L260.91,220.31L259.18,221L258.73,220.53L258.73,220.53L258.44,219.83L258.78,218.85L258.4,218.15L258.47,217.34L257.69,216.46L257.71,216.03L258.13,216.13L258.53,215.71L258.84,214.47L259.5,214.32L259.78,213.46L258.96,212.38L261.69,210.04L261.49,209.58L264.39,208.35L265.02,207.19L265.02,207.19L267.75,206.73L269.23,208.16L269.94,208.23L271.07,207.03L271.24,205.92L271.66,205.53L273.57,206.73L273.95,206.67L274.83,206.34L274.79,205.52L276.48,205.16L277.15,204.62L279.27,204.29L279.81,201.98L281.5,201.54L282.41,202.5L285.26,202.33L285.35,201.14L285.06,200.89L285.45,200.41L284.09,199.26L284.94,197.94L286.33,197.45L286.76,195.76L285.6,194.53L286.73,194.59L287.24,193.42L287.62,193.56L287.68,192.97L289.64,192.13L290.9,192.54L291.57,192.48L291.67,192.05L293.33,192.68L293.61,192.02L294.34,192.9L296.01,193.19L296.39,193.04L296.45,192.4L298.16,192.55L298.07,191.97L298.33,191.94L298.75,192.37L299.82,192.21L300.06,192.56L300.78,192.37L301.57,192.88L301.9,192.73L302.38,193.67L302.99,193.93L303.19,193.58L303.91,194.14L304.22,193.47L304.44,193.66L304.79,193.2L305.18,193.46L305.84,192.45L306.99,192.69L307.36,192.03L308.53,192.2L308.88,193.08L310.46,192.62L311.13,194.17L311.95,194.14L312.04,193.56L312.88,194.09L313.37,193.11L313.3,193.78L313.97,193.23L313.97,192.72L314.51,193.06L314.7,192.77L314.35,192.33L315.33,191.46L317.86,190.3L317.88,189.59L318.97,188.9L318.67,188.59L319.19,187.66L318.93,187.32L319.66,186.69L319.24,185.8L319.53,185.52L319.14,185.29L319.72,184.68L320.12,184.98L319.6,186.01L321.01,185.06L323.22,185.48L323.73,183.72L325.32,183.94L326.94,183.28L327.25,182.78L327.94,183.52L328.56,183.56L331.02,184.95L331,186.2L332,184.98L334.01,184.58L334.75,183.67L335.52,184.38L336.9,184.35L336.79,185.03L337.17,185.16L337.4,184.74L338.73,184.68L339,184.43L339.04,183.16L338.34,182.63L338.38,181.97L339.84,181.54L340.12,180.29L341.19,180.88L341.7,177.18L342.62,177.13L342.66,176.15L343.39,176.13L343.46,175.84L343.94,176.44L345.69,176.06L345.8,176.63L346.23,176.5L346.54,177.6L346.34,178.24L346.75,178.49L348.15,178.69L348.85,177.52L349.16,178.19L349.88,178.43L349.64,178.69L349.89,179.84L350.72,179.46L351.5,183.32L352.39,183.28L352.11,181.91L353.28,182.31L353.55,182.74L354.34,182.05L354.43,182.52L356.81,182.36L356.42,181.53L356.72,181L357.37,181.1L357.47,181.48L358.56,181.36L358.68,181.97L362.42,181.17L362.43,180.67L363.37,180.57L363.33,180.24L361.89,179.62L362.33,178.8L361.9,176.79L361.39,176.38L363.99,175.25L364,174.12L360.06,172.77L359.48,171.89L360,170.65L362.47,168.35z"/>
	</g>
</svg>