<?xml version="1.0" encoding="utf-8"?>
<svg xmlns="http://www.w3.org/2000/svg" xmlns:amcharts="http://amcharts.com/ammap" xmlns:xlink="http://www.w3.org/1999/xlink" version="1.1" viewBox="241.31999999999996 46.58 97.91000000000011 124.52000000000002" >

    <g>
        <path id="UA-32" title="Kyiv Oblast" fill="black" d="M283.28,59.99l-1.81,0.41l0.3,-1.8l-2,-0.15l-2.37,-2.39l-0.26,-0.44l1.05,-0.91l-0.56,-2.17l0.35,-0.22l-0.58,-0.14l-1.5,-1.99l-1.44,-1.19l-1.51,-0.52L272,47.57l-0.42,1.2l-1.19,-0.99l-0.22,0.11l0.23,0.79l-0.28,0.16l-3.48,-0.89l-0.16,0.79l-0.71,0.45l-0.46,-0.15l-0.37,0.72l-1.29,-1l-1.09,0.28l-0.4,0.38l0.22,0.3l-0.42,1.43l-1.2,-0.63l-0.92,0.4l-0.37,-0.54l-0.39,0.13l0,0.84l-1.64,-0.86l-0.6,-1.7l0.62,-0.28l-0.06,-1.13l-0.25,-0.8l-0.7,0.01l-0.24,0.46L255,47.59l-0.15,0.46l-0.4,-0.16l-0.48,0.35l-0.33,-0.3l-0.37,0.62l-0.47,0.1l-0.02,0.89l-0.82,0.66l-1.47,-0.95l-0.75,1.8l0.09,1.26l-0.63,1.35l-3.05,-0.73l-0.97,0.5l-0.77,0.95l0,0l0.01,0.5l1.18,-0.18l0.15,2.99l-1.46,2.71l-0.87,0.13l0.02,-0.33l-2.12,0.68l0.92,4.56l0.8,2.84l0.29,0.08l0.17,-1.63l0.56,-0.14l2.17,1.49l1.56,2.27l1.67,1.52l-1.54,2.39l0.08,1.67l0.34,0.36l-1.17,-0.46l-0.95,0.06l-0.05,1.94l0.82,0.28l0.83,0.84l0.72,1.79l1.06,0.86l0.28,0.62l-0.74,1.66l0.95,0.64l0.45,-0.21l0.25,0.81l-1.39,-0.27l-0.44,0.24l0.1,0.75l0.73,0.45l-0.42,0.31l0.14,0.56l-1.31,0.17l1.21,0.28l0.83,-0.51l1.37,0.22l0.03,1.1l0.84,1.14l-0.71,1.65l-1.52,1.11l-0.03,0.72l-0.8,0.47l-0.58,-0.28l-0.29,0.19l-0.19,0.24l0.3,0.45l-0.59,0.61l0.11,0.3l-0.54,-0.1l0.12,0.3l-0.44,0.19l1.61,1.43l0.38,1l-0.12,1.27l-0.45,0.72l-0.92,-0.08l0.25,0.58l-0.24,0.64l1.52,0.76l0.14,1.51l-0.9,0.67l-0.93,-0.59l-0.23,0.94l1.58,0.19l0.13,0.54l-1.01,1.27l-0.91,-0.07l0.53,0.83l0.68,-0.16l0.35,-0.53l2.51,-0.43l0.91,1.33l0.04,1.15l0.67,0.17l0.26,0.46l0.65,-0.32l-0.74,1.55l0.34,0.59l1.55,0.44l0.74,-0.18l-0.57,1.46l0.4,0.9l-0.78,0.3l1.23,2.33l-0.48,0.21l-0.39,1.18l-1.03,1.15l1.61,1.53l-1.12,1.37l-0.06,0.45l0.63,0.05l-0.93,0.66l1.59,1.86l-0.08,1.49l-0.58,0.46l0.71,1.42l-0.25,0.41l0.95,1.09l-0.16,0.32l0.74,1.33l-0.3,0.67l-1.83,1.01l0.79,0.44l-1.47,1.37l0.45,0.22l-0.46,0.5l-0.37,-0.22l-0.69,0.92l-0.58,-0.2l-0.2,0.59l-1.68,0.43l-0.26,0.84l-1.11,-0.81l-0.53,0.44l0.17,0.49l-0.49,0.74l-0.41,-0.6l-0.69,0.6l-0.44,-0.12l0.84,2.25l-0.8,1.79l0.3,0.81l1.59,0.02l-0.13,2.22l0.83,0.35l-0.35,0.71l0,0l0.96,0.67l-0.82,0.79l-0.26,1.4l1.01,1.92l0.38,1.91l0.95,0.88l0.53,-0.12l-0.07,0.53l-1.23,0.57l0.12,0.61l1.46,1.17l-1.18,2.02l-1.81,0.88l-0.16,1.08l0.62,0.51l0.16,1.49l0.54,0.74l1.12,-0.05l1.6,0.92l-0.27,0.8l0.14,0.76l0.38,0.04l-0.49,0.58l0.98,0.87l0.78,-0.14l0.81,0.59l0.33,-0.96l0.47,-0.24l0.29,1.42l0.47,0.27l0,0l0.72,0.16l-0.36,0.77l-0.62,0.22l1.29,1.43l1.66,-0.33l0.27,0.41l1.14,-0.51l0.96,0.09l-0.3,-0.75l0.76,-0.26l1.15,-2.25l0.82,-0.33l-0.04,-1.43l-0.43,-1l0.2,-0.57l0.4,0.22l1.27,-0.35l0.54,-0.76l0.52,-0.13l1.54,0.44l0.41,1.91l0.69,0.83l0.52,-0.79l-0.46,-0.97l0.71,-0.32l0.56,-1.2l0.1,0.49l1.75,-0.18L272.5,166l5.87,1.01l0.08,0.94l0.31,0.05l0.84,-3.33l0.7,-0.2l-0.12,-1.24l0.8,-0.24l0.03,-0.96l1.12,-0.69l1.54,1.92h0.66l1.11,-1.34l0.44,0.17l0.79,-0.97l1.04,0.69l1.21,0.01l1.92,1.25l0.67,-0.67l1.12,0.01l0.63,-0.49l2.2,0.1l0.59,-0.5l0.82,0.13l0.44,-1.14l0.35,-0.01l0.14,-1.36l-0.5,-0.46l2.54,-0.38l0.37,-0.5l-0.06,-0.8l0.83,-1.13l0.53,0.75l-0.16,-0.87l0.74,-0.26l1.05,-1.02l0.25,-2.4l0.4,-0.62l0.36,-0.17l0.54,0.56l0.18,-0.49l0.31,0.04l-0.43,-0.91l0.33,-0.34l-0.65,-0.1l0.18,-1.15l2.33,-3.55l-0.1,-0.83l0.45,0.22l0.17,-0.42l-0.71,-0.4l0.36,-1.48l0.36,-0.23L307,141.2l0.26,-1.26l-0.85,-0.69l1.01,-2.17l-0.33,-1.09l1.16,-0.74l0.55,0.49l1.07,-1.39l2.87,-0.91l0.08,-0.39l-0.92,-1.39l-0.49,-0.15l-0.02,-0.4l0.42,-0.29l-1.26,-0.69l-0.75,0.34l0.81,-0.93l-0.58,-0.07l0.29,-0.72l2.77,-0.23l1.26,0.22l0.57,0.52l0.14,0.41l-0.71,2.03l0.03,1.74l0.58,1.23l0.88,0.2l0.29,0.73l0.67,-0.12l0.2,0.93l0.41,-0.11l0.17,-1.37l1.31,-0.2l0.36,-1.02l0.53,-0.16l0.17,-0.49l0.76,0.05l0.16,2.69l3.35,0.3l1.29,-2.2l0.64,-0.05l-0.07,-1.36l0.91,-0.82l0.65,-1.65l2.45,0.17l0.44,1.13l0.57,-1.23l-0.62,-2.84l2.22,-1.3l0.53,0.08l0.15,-0.49l-1.95,-0.47l-0.73,0.18l0.13,-2.37l2.1,-1.17l-0.48,-0.79l-0.38,0.13l-0.37,-1.07l0.97,0.28l1.13,-2.24l-0.15,-0.37l0.68,-0.21l1.43,0.91l1,-1.79l0.69,0.08l0.33,-0.44l0,0l-0.91,-1.01l0.52,-1.77l-0.2,-0.24l1.42,-0.95l-0.37,-0.59l0.73,-1.05l-0.24,-0.61l0,0l-0.08,-0.36l0.58,-0.76l-0.12,-0.42l-1.26,-0.23l-1.13,0.33l-0.27,-0.97l0.75,-1.17l-1.68,0.78l-0.86,-3.06l-1.93,-0.66l0.36,-0.59l-0.48,-0.26l0.66,0.08l0.08,-0.61l0.51,-0.06l0.25,0.55l1.22,-0.39l0.62,-0.9l-0.34,-0.63l0.34,-0.96l-3.73,-0.16l-1.04,-2.68l-1.32,-0.64l-0.83,-1.26l-1.61,0.44l-0.02,0.79l-0.87,0.16l0.16,1.27l-0.38,0.22l0.09,0.9l-3.17,-0.17l-0.66,0.68l-0.69,-0.21l-0.01,1.05l-0.52,0.61l-2.04,-0.27l-0.52,0.46l-1.11,-0.57l-0.18,0.4l-0.86,-0.02l-1.78,1.14l-0.75,-0.07l-0.14,-0.8l-1.47,-0.9l-1.39,1.78l-0.36,-1.37l-2.08,-0.79l0.02,-0.88l-0.28,0.03l-0.13,-0.6l-1.94,-0.36l-0.01,-0.71l-0.67,-0.01l0.02,-1.06l1.68,0.12l0.3,-0.34l-0.27,-0.37l0.23,-0.37l-0.87,-0.87l0.75,-1.43l-0.14,-1.29l-0.38,-0.13l-0.02,-0.45l-0.53,0.18l-0.04,-1.18l-0.79,-0.06l0.03,-0.49l-1.48,-0.91l0.07,-1.27l-1.64,-0.27l-0.35,0.84l-3.69,0.04l-0.24,0.34l-1.68,-0.47l-0.37,-0.4l-0.45,0.29l-0.12,1.12l-0.75,0.14l-0.56,-0.03l-0.14,-0.58l0.44,0.07l0.03,-0.56l0.98,-0.78l-1.36,1.02l-1.98,-0.94l-1.25,0.32l-0.08,-0.66l0.43,-0.83l-0.53,-0.85l0.46,-0.17l0.52,0.41l0.13,-0.72l0.47,-0.41l-0.41,-2.33l-1,-0.57l-0.18,-0.48l-1.56,-0.42l-0.79,-2.36l-0.63,-0.87l-0.02,-1.92l-1.31,-0.55l-0.14,-0.87l-3.36,0.21l-0.22,-1.6l0.47,-1.16l-0.8,-1.12l0.94,-0.45l0.15,-0.4l-0.81,-1.19l-0.12,-1.89l0.37,-0.51l0.88,0.12l0.42,-0.27l-0.8,-0.4l0.49,-0.93l-0.89,-1.2l0.29,-0.33l1.18,0.12l0.31,-0.25l-0.05,-0.81L284.37,61L283.28,59.99zM293.94,100.18l-0.64,0.4l-0.71,-0.2l-0.84,0.4l-0.52,1.31l0.58,2.52l1.48,1.11l0.19,1.81l-1.35,1.81l-1.93,0.91l-1.55,-1.01l-0.84,0.1l-0.32,0.4l-0.13,1.51l0.39,0.3l0.13,1.21l-0.52,0.9v1.01l0.39,1.61l-0.9,1l-1.03,-0.4l-0.97,-1.51l-0.77,-2.21l-0.32,-2.52l-1.03,0.1l-0.9,-0.81l-0.58,-0.1l-0.84,-2.52h-1.03l-0.52,-0.4l-0.45,-2.02l-1.29,-0.2l-1.29,0.4l-0.64,0.4l-0.26,0.71l-0.71,0.1l-0.26,-0.91l1.1,-2.73v-1.01l1.55,-1.82l0.9,0.2l0.32,-0.61l-0.26,-0.61l-1.35,-0.91l-0.06,-0.51l0.32,-0.2l2.71,-0.2l2.38,0.4l3.03,3.24l1.55,-0.91h2.9l0.64,-0.51l0.64,-1.31l1.16,-0.4l1.87,0.61l0.58,0.61V100.18z"/>
	</g>
</svg>