<?xml version="1.0" encoding="utf-8"?>
<svg xmlns="http://www.w3.org/2000/svg" xmlns:amcharts="http://amcharts.com/ammap" xmlns:xlink="http://www.w3.org/1999/xlink" version="1.1" viewBox="17.05 93.08 94.2 101.48" >

    <g>
        <path id="UA-46" title="Lviv" fill="black" d="M66.03,93.19L67.78,93.08L69.04,95.4L69.67,95.58L70.02,96.5L71.33,97.42L73.7,97.85L74.17,96.64L75.46,96.65L75.93,96.1L76.93,97.17L76.59,97.82L76.81,98.61L78.21,99.59L78.85,99.61L80.31,98.8L80.89,99L81.82,100.73L81.76,102.12L82.09,102.42L82.78,102.25L82.89,101.76L83.24,101.95L82.99,102.25L83.32,103.61L82.96,103.87L83.27,104.09L83.18,106.44L85.14,106.61L85.14,106.97L87.43,108.35L87.15,110.06L89.3,110.34L89.79,109.96L92.13,109.69L92.43,109.28L93.08,109.34L93.06,110.04L94.75,110.05L94.55,108.33L94.94,107.76L97.55,110.19L98.66,110.23L98.97,110.98L98.86,112.32L100.72,113.08L100.72,113.08L101.15,113.29L102.57,112.86L103.89,113.48L103.84,115.2L103.35,115.2L102.87,115.91L103.03,116.46L102.59,116.74L102.67,117.62L104.21,118.74L103.75,119.43L103.56,121.39L107.45,126.98L108.7,127.97L108.7,127.97L110.43,129L110.76,129.84L110.51,130.82L111.25,131.3L109.96,131.73L109.59,132.81L110.11,133.6L109.48,135.21L107,135.86L106.64,137.24L105.68,136.71L105.26,136.82L105.26,137.36L104.7,137.45L102.98,136.68L102.7,137L101.94,136.95L101.48,137.84L99.69,137.28L99.96,139.37L99.45,140.22L100.84,141.65L99.17,143.36L98.41,142.31L97.6,142.02L96.87,144.03L96.48,146.98L95.74,147.22L95.25,148.25L94.66,148.18L94.8,148.58L93.86,148.27L93.5,148.6L93.7,149.12L92.59,148.56L92.22,149.1L91.4,149.11L91.48,150.01L91.08,149.42L90.04,149.81L89.86,150.48L87.29,150.6L87.67,151.81L87.5,154.48L87.5,154.48L86.73,154.6L85.24,153.94L84.65,154.33L83.23,153.51L82.43,152.49L81.4,153.12L80.6,153.04L80.24,152.44L80.73,152.12L80.03,151.45L79.14,151.26L79.28,151.61L78.87,151.47L78.84,151.78L77.81,152.43L78.15,154L77.02,154.09L76.66,154.63L77.12,155.76L76.91,157.16L75.95,157.33L75.55,157.93L76.16,159.84L77.74,160.58L76.31,161.86L76.55,162.82L75.78,164.08L75.19,163.58L74.57,164.17L73.22,163.83L73.18,164.57L73.27,165.52L74.42,165.31L75.33,165.72L74.93,167.15L74.48,167.57L74.81,168.13L76.07,168.42L78.27,168.27L77.88,169.04L78.11,169.4L77.66,170.23L77.68,171.19L77.07,171.45L75.94,170.47L75.13,170.6L72.49,171.46L70.86,172.74L70.05,172.52L69.71,173.05L68.88,172.77L68.63,173.62L68.12,173.54L67.76,172.97L65.07,172.57L63.68,174.17L63.35,173.52L62.05,173L60.03,174.43L59.75,174.97L57.62,174.29L56.27,174.69L55.69,174.02L55.41,174.17L54.89,173.79L53.69,175.15L53.28,174.88L52.6,175.25L51.89,178.4L51.23,178.9L50.73,178.58L50.38,178.86L50.21,179.55L48.4,181.53L49.1,182.61L48.23,184.8L48.58,185.74L49.67,186.13L49.81,186.51L48.67,187.04L48.62,188.04L47.98,189.21L48.8,191.28L47.59,193.42L47.79,194.14L47.79,194.14L46.39,193.85L45.14,194.56L43.53,194.07L41.98,193.34L41.47,191.98L40.23,192.79L38.87,191.69L38.16,192.34L36.04,192.42L34.32,188.73L33.74,188.61L33.69,187.8L32.53,187.15L31.2,187.97L30.6,187.76L29.85,188.04L29.26,188.81L28.83,188.65L28.33,188.02L28.06,186.43L26.92,185.97L25.63,184.88L24.93,183.2L24.96,182.35L25.77,181.73L26.45,181.72L25.9,180.07L27.11,179.23L25.19,178.15L25.19,178.15L24.7,178.12L24.97,177.48L24.65,176.72L25.48,175.18L24.42,174.88L24.2,174.26L23.45,174.39L22.94,173.45L22.22,173.01L22.09,172.02L20.83,172.26L20.39,171.97L20.95,170.74L20.24,170.75L19.71,171.67L19.32,171.13L20.21,169.31L20.65,169.05L19.73,168.78L19.57,168.26L19.79,167.69L20.41,167.38L20.79,163.82L20.63,161.48L18.98,154.64L17.79,154.24L17.05,152.75L17.83,152.27L18.95,149.97L21.85,146.19L22.01,145.11L22.53,144.35L23.23,144.15L23.95,143.4L24.83,141.91L25.61,141.29L26.42,139.63L27.85,138.45L28.16,136.7L29.08,136.44L33.07,130.57L36.41,126.61L36.57,125.63L37.39,125.29L38.67,123.7L38.64,122.79L39.14,122.83L39.88,122.26L45.17,116.76L48.88,114.2L50.73,111.43L52.36,110.77L52.86,108.58L53.73,107.81L56.45,106.9L60.99,106.39L62.96,106.51L63.2,105.28L64.18,104.71L65.89,99.59L66.4,96.24L66.14,95.52L66.33,94.57L65.96,94.56L65.73,94.1z"/>
	</g>
</svg>