<?xml version="1.0" encoding="utf-8"?>
<svg xmlns="http://www.w3.org/2000/svg" xmlns:amcharts="http://amcharts.com/ammap" xmlns:xlink="http://www.w3.org/1999/xlink" version="1.1" viewBox="273.24 219.38 100.54000000000013 89.37000000000006" >

    <g>
        <path id="UA-48" title="Mykolaiv" fill="black" d="M319.56,303.85l2.52,0.04l3.45,-0.5l1.66,1.01l1.77,0.48l0,0l-0.38,0.89l-0.8,0.04l-0.54,0.92l0,0l-1.73,-0.46l-1.09,0.25l-0.8,0.84l-0.15,0.8l0.51,0.59l-0.24,0l-2.61,-2.79l-2.55,-2.1l-1.46,-2.12l0.87,1.22L319.56,303.85zM276.38,223.77l2.23,-1.58l4.18,0.36l0.28,0.61l0.79,-0.99l0.97,1.11l2.22,-0.03l0.16,-0.53l1.05,-0.28l-0.25,-0.69l2.39,-0.59l0.15,0.48l2.18,-0.19l0.31,1.17l0.71,-0.1l0.03,-1.04l0.42,0.42l0.64,-0.05l0.3,1.14l1.01,-0.29l0.46,0.36l0.87,-0.37l0.24,-0.91l1.91,-0.13l-0.35,-1.78l2.43,-0.49l0.13,0.48l2.84,-0.43l0.08,0.45l0.76,0.14l0.94,1.27l-0.41,0.7l0.67,0.56l0.68,-0.1l0.54,2.72l2.85,-0.93l0.18,1.12l1.38,-0.31l0.57,-0.63l0.4,1.19l0.85,-0.19l-0.02,-0.43l2.29,-0.43l0.43,2.05l-0.68,0.27l-0.23,0.92l0.57,-0.04l0.13,0.72l0.5,-0.32l0.06,-0.46l1.36,-0.07l-0.26,-1.97l0.51,-0.08l0.32,0.45l0.53,-0.27l0.05,-1.18l1.65,-0.31l0.3,0.98l1.48,-0.2l0.35,1.3l2.45,-0.44l0.45,3l-1.68,0.42l-0.06,0.47l0.71,4.09l0.86,-0.74l0.22,0.2l2.03,-0.4l0.34,2.46l0.82,-0.17l0.23,2.71l-0.91,0.05l-0.06,1.04l0.47,0.96l-1.38,0.31l0.29,1.64l4.31,-0.58l-0.06,-0.63l3.12,-0.42l0.21,0.59l0.52,-0.04l0.45,1.14l0.7,-0.08l0.2,1.45l0.49,-0.07l0.32,0.49l0.54,-0.7l0.2,0.53l2.27,-0.46l-0.25,-1.57l0.6,-0.15l-0.02,-1.01l2.12,-0.53l2.16,1.73l1.89,-0.61l0.23,0.63l0.53,-0.03l7.16,-1.44l0.81,-1.58l-0.35,-0.23l-0.15,-0.81l0.69,-0.12l-0.27,-1.64l-0.69,0.06l-0.11,-0.73l3.1,-0.57l-0.33,-0.98l-1.29,0.26l-0.15,-1.78l3.35,-0.57l0.41,0.92l3,-0.51l-0.2,-1.72l-0.54,-0.63l1.59,0l-0.05,-0.29l0.91,-0.21l0.35,0.3l1.31,-0.71l0.42,3.07l0,0l-0.35,0.64l0.44,1.98l-0.47,0.19l0.41,0.88l0.44,0.21l2.09,-0.39l0.18,1.7l-0.52,0.22l0.39,2.26l-0.79,0.23l0.32,2.25l-0.57,0.27l0.21,0.95l0.35,0.06l0.14,1.13l-3.33,0.86l0.81,5.2l-1.2,1.24l4.48,-0.25l-0.05,0.97l0,0l0.05,2.68l1.52,-0.92l0.14,0.3l0.16,1.13l-0.76,0.41l0.44,4.35l-2.23,0.34l-0.14,-3.02l-0.53,0.21l0.03,0.91l-0.75,0.24l0.14,2.94l0.17,0.38l2.82,-0.45l0.42,2.77l-1.09,0.49l0.06,2.06l0.45,-0.02l0.68,0.55l1.43,1.63l-1.65,0.25l-0.05,0.77l0.44,0.39l-0.45,0.3l-0.56,-0.09l-0.51,-0.87l-1.09,0.16l-0.02,0.97l-0.99,0.63l0.05,0.45l-0.73,-0.12l-0.38,-0.79l-0.07,0.32l-1.52,0l-0.29,1.26l-1.39,1.92l0.84,2.32l4.59,2.81l-1.54,2.41l-2.43,-1.34l-0.68,0.61l0.63,2.03l0.92,-0.1l0.15,0.77l-1.95,0.25l0.12,0.8l-3,0.68l0.1,0.87l0.43,0.19l2.09,-0.36l0.16,0.86l0.86,-0.15l0.09,0.56l-4.59,0.83l-0.04,0.37l-1.35,0.16l-0.14,0.52l-0.36,-0.33l-2.02,0.32l-0.26,-1.95l-3.57,0.26l-0.41,-0.91l-0.93,0.15l-0.09,-0.62l-0.37,0.05l0.27,1.57l-0.44,0.1l0.21,1.25l-2.09,0.27l-0.23,-1.22l-3.28,0.54l0.25,1.72l-0.91,0.09l-4.17,-2.65l0.83,1.44l-1.24,0.63l0.21,1.72l-1.62,0.36l-0.19,0.54l-1.71,0.29l-0.31,-0.27l-1.65,0.41l0.18,0.81l0.45,-0.07l0.32,2.19l-2.27,0.37l0.39,0.55l-1.42,0.08l-0.17,0.47l0,0l-2.6,-0.21l-0.77,1.25l-2.96,1.2l-0.71,-0.69l-1.49,-0.2l-2.06,-0.88l-1.91,-0.04l-1.14,0.71l-0.96,1.57l-1.09,-0.9l-1.09,-0.37l-2.21,-0.14l-0.49,0.44l-1.33,-0.15l-0.56,1.1l-2.08,-0.58l-1.89,0.07l-1.88,-0.82l0,0l0.4,-0.99l-0.44,-0.24l0.68,-0.39l-0.72,-0.48l0.26,-1.84l-1.22,-1.61l0.96,-1.41l-0.83,-1.52l0.14,-1.64l-0.92,-0.63l-0.65,0.06l-0.69,-1.92l-1.03,-0.77l-0.65,-0.05l-0.75,-3.01l2.38,-0.64l0.03,-0.49l1.54,-0.27l0.26,0.48l3.46,-0.58l-0.49,-1.52l1.19,-0.27l0.89,0.18l0.05,-1.08l0.36,-0.12l-0.31,-1.6l0.27,-0.13l-1.13,-4.38l-0.65,0.11l-0.22,-0.43l-1.39,0.28l-0.17,0.79l-2.91,0.02l-0.03,-1.66l0.32,-0.06l0.17,0.63l1.12,-0.19l-0.37,-1.83l1.01,-0.24l-0.14,-2.12l-5.17,1.33l-0.4,-1.5l-0.68,0.09l0.31,-1.07l-3.02,0.61l-0.5,-2.11l-0.54,0.1l-0.2,-0.78l1.24,-0.63l-0.28,-0.67l-0.47,0.04l-0.15,-0.43l-0.26,-1.62l0.68,-0.16l-0.28,-1.14l-1.24,0.2l-0.05,-1.1l0.57,-0.12l-0.43,-2.85l1.03,-0.23l-0.36,-1.74l-1.35,0.22l-0.17,-0.53l-1.8,0.05l-0.74,-0.6l-0.11,-0.49l-0.09,-0.46l1.15,-0.25l-0.17,-1.92l0.64,-0.69l-0.14,-0.66l-2.71,0.53l0.37,1.47l-1.51,0.41l-0.54,0l0.15,-1.65l-1.54,0.43l-0.22,-0.49l-4.65,0.86l-0.26,-1.16l-1.5,0.27l-1.08,-5.93l1.18,-0.4l-0.3,-1.27l0.71,-0.1l-0.02,-0.58l-0.27,-0.03l-0.2,-1.01l-3.12,0.42l-1.04,-5.52l0.27,-0.31l-0.82,-1.13l-1.24,-0.73l0.13,-0.69l-0.75,-1.71l1.02,-0.53l-0.73,-1.6l-0.9,-0.56l0.78,-0.16l0.61,-0.91l1.09,0.18l0.17,-0.58l1.19,0.03l-0.37,-0.21l0.11,-0.31l0.45,0.38l0.88,-0.22l0,-0.49l-1.43,-0.19L276.38,223.77z"/>
	</g>
</svg>