<?xml version="1.0" encoding="utf-8"?>
<svg xmlns="http://www.w3.org/2000/svg" xmlns:amcharts="http://amcharts.com/ammap" xmlns:xlink="http://www.w3.org/1999/xlink" version="1.1" viewBox="205.6000000000004 219.35 104.61999999999998 148.98" >

    <g>
        <path id="UA-51" title="Odesa" fill="black" d="M258.73,220.53l0.45,0.48l1.73,-0.69l1.44,1.43l1.41,-2.4l1.45,0.78l0.54,-0.68l0.67,1.13l-0.14,1.2l0.88,0.03l0.79,1.46l1.74,0.45l0.6,-0.58l1.81,0.03l2.18,0.72l0.8,-0.33l1.29,0.21l0,0l0.35,1.53l1.43,0.19l0,0.49l-0.88,0.22l-0.45,-0.38l-0.11,0.31l0.37,0.21l-1.19,-0.03l-0.17,0.58l-1.09,-0.18l-0.61,0.91l-0.78,0.16l0.9,0.56l0.73,1.6l-1.02,0.53l0.75,1.71l-0.13,0.69l1.24,0.73l0.82,1.13l-0.27,0.31l1.04,5.52l3.12,-0.42l0.2,1.01l0.27,0.03l0.02,0.58l-0.71,0.1l0.3,1.27l-1.18,0.4l1.08,5.93l1.5,-0.27l0.26,1.16l4.65,-0.86l0.22,0.49l1.54,-0.43l-0.15,1.65l0.54,0l1.51,-0.41l-0.37,-1.47l2.71,-0.53l0.14,0.66l-0.64,0.69l0.17,1.92l-1.15,0.25l0.09,0.46l0.11,0.49l0.74,0.6l1.8,-0.05l0.17,0.53l1.35,-0.22l0.36,1.74l-1.03,0.23l0.43,2.85l-0.57,0.12l0.05,1.1l1.24,-0.2l0.28,1.14l-0.68,0.16l0.26,1.62l0.15,0.43l0.47,-0.04l0.28,0.67l-1.24,0.63l0.2,0.78l0.54,-0.1l0.5,2.11l3.02,-0.61l-0.31,1.07l0.68,-0.09l0.4,1.5l5.17,-1.33l0.14,2.12l-1.01,0.24l0.37,1.83l-1.12,0.19l-0.17,-0.63l-0.32,0.06l0.03,1.66l2.91,-0.02l0.17,-0.79l1.39,-0.28l0.22,0.43l0.65,-0.11l1.13,4.38l-0.27,0.13l0.31,1.6l-0.36,0.12l-0.05,1.08l-0.89,-0.18l-1.19,0.27l0.49,1.52l-3.46,0.58l-0.26,-0.48l-1.54,0.27l-0.03,0.49l-2.38,0.64l0.75,3.01l0.65,0.05l1.03,0.77l0.69,1.92l0.65,-0.06l0.92,0.63l-0.14,1.64l0.83,1.52l-0.96,1.41l1.22,1.61l-0.26,1.84l0.72,0.48l-0.68,0.39l0.44,0.24l-0.4,0.99l0,0l-5.48,1.36l-6.04,2.32l-1.46,-0.3l-1.47,0.66l-0.77,1.74l0.28,0.79l0.51,0.33l0.18,-0.24l0.51,2.36l-0.75,3.3l-1.08,0.76l-1.26,1.75l-2.25,4.67l-2.05,3.53l-1.53,1.73l-0.99,2.04l-3.52,3.68l-5.37,6.81l-17.17,13.83l-2.61,3.01l-0.38,1.45l-0.51,-0.14l-0.07,0.33l1.39,1.36l0.46,-0.39l-0.26,-0.41l0.31,-0.47l0.54,0.5l-0.01,0.63l0.29,-0.52l1.37,-0.21l0.86,0.47l0.26,-0.34l0.2,0.21l-0.45,0.76l0.35,1.03l-0.52,1.24l0.52,3.51l-0.86,2.93l0.18,1.81l-0.84,0.09l-0.11,0.69l-1.02,0.21l-0.3,-0.29l-0.57,-1.78l0.61,-0.93l-0.31,-1.88l-0.46,-1.28l-1.9,-2.37l-1.68,-1.15l-2.39,-0.66l-1.72,-0.98l-2.53,0.3l-0.85,-0.56l-1.28,1.03l-1.68,-0.28l-0.66,0.63l-1.1,0.33l-0.29,0.64l-0.91,0.55l-2.29,0.72l-3.24,1.94l-0.77,0.1l-0.58,0.91l0.15,1.01l-0.41,0.54l-0.9,-0.33l-1.4,-1.44l-0.97,-0.04l-0.84,-0.86l-0.76,0.03l-0.56,0.56l0.8,0.59l-0.15,0.55l-1.65,0.82l0.4,0.85l0.94,0.6l0.03,0.47l-2.49,0.84l-2.66,-0.9l-2.6,-0.25l-7.34,-3.54l-2.12,-3.6l-0.09,-2.34l-2.27,-0.94l1.1,-1.92l2.09,-1.93l2.72,1.04l1.33,-0.26l-0.18,0.65l0.36,1.43l2.76,-0.68l-0.77,-3.39l1.91,-0.45l-0.97,-4.12l-1.23,-0.02l1.13,-2.42l0.91,-0.93l1.69,0.23l0.16,-0.58l-0.36,-1.39l1.31,0.3l2.87,-0.76l-0.31,-1.73l2.86,-0.82l-0.92,-4.45l0.22,-0.59l-0.21,-0.98l0.76,-0.17l-0.19,-0.48l6.93,-1.56l0.88,-2.17l-1.88,-2.37l3.85,-4.8l-3.79,-3.14l1.47,-3.51l-2.18,-6.17l3.22,-0.24l-0.07,-0.8l-1.14,0.02l-0.06,-0.47l1.43,-0.16l0.28,-0.68l0.88,-0.33l3.26,-0.14l0.06,-1.41l2.43,-0.72l0.13,2.86l0.33,0.02l0.21,0.71l-1.19,1.06l0.84,2.29l-1.3,1.57l1.13,0.39l0.91,-0.86l-0.05,-0.54l1.09,-0.57l0.3,0.41l0.6,-0.27l-0.6,-1.42l0.47,-0.35l-0.31,-0.74l0.92,-0.44l-0.15,-1.08l0.51,-0.36l1.66,3.83l-0.3,-1.06l2.17,-2.35l1.74,1.75l-0.77,0.96l0.8,0.76l1.95,0.35l0.54,2.72l0.73,-0.13l0.17,0.45l2.36,-0.34l-0.42,-3.58l0.47,-0.27l0.39,0.71l1.59,-0.36l0.29,-0.5l-0.55,-1.1l0.48,-0.26l1.2,0.81l0.49,1.99l1.11,0.85l-0.48,0.57l2.6,1.58l-0.05,-0.99l1.76,-1.4l1.65,0.91l0.43,-0.37l0.81,0.3l1.3,-0.74l1.08,0.89l2.33,-1.55l-0.16,-0.81l-0.76,0.91l-0.3,-0.72l-0.36,-0.27l-0.3,0.17l-0.32,-0.61l0.05,0.68l-0.51,-0.44l-0.15,0.55l-0.7,-0.18l0.25,-0.74l-1.38,0.02l0.06,-0.54l-1.05,-0.34l0.96,-0.45l-0.83,-0.1l-0.28,-0.38l0.37,-0.82l-0.48,0.08l0.02,-0.75l-0.17,0.5l-0.37,-0.16l-0.34,0.53l-0.31,0l0.25,-0.92l-0.74,0.76l0.12,-0.41l-0.51,0.01l-0.01,-0.5l-0.67,-0.08l0.2,-0.38l-0.56,-0.29l0.19,-0.26l-0.44,-0.66l-0.43,0.02l2.5,-0.62l-0.45,-0.48l-0.02,-0.66l0.84,-0.89l-0.4,-2.26l0.88,-2.13l-0.02,-3.08l-1.28,-2.64l0.86,-0.59l0.54,0.05l-0.33,-0.79l-0.71,-0.4l-1.4,1.01l-0.71,-1.48l0.26,-0.2l-0.28,-1.54l-1.19,0.2l-0.2,0.42l-3.04,0.62l-1.07,-3.45l-0.33,0.34l-2.11,0.11l-0.32,-1.62l-2.23,0.63l-0.52,-0.82l1.32,-0.25l0.19,-3.7l0.84,-0.36l-0.5,-2.67l-2.22,0.19l0.05,0.91l-0.57,0.15l-0.51,-1.94l-0.63,0.14l-0.06,-0.63l2.89,-0.72l-0.99,-5.64l1.59,-0.41l-0.88,-5.62l-2.3,0.39l-0.62,0.4l0.01,0.74l0.33,0.17l-0.47,0.29l0.01,1.19l-1.81,0.84l-0.21,-0.79l-0.86,0.23l-0.49,-2.2l0.47,-0.37l-0.27,-1.38l-1.77,0.49l-0.67,-3.83l-1.52,0.67l-0.86,0.95l-0.17,-2.25l-1.75,1.8l-0.34,-1.27l0.53,-0.62l-0.14,-0.28l-0.9,0.72l-0.22,-0.26l0.99,-0.84l0.04,-1.92l-0.17,-0.24l-1.1,0.5l-1.26,-2.32l2.34,-0.87l0.06,-0.59l1.07,-1.38l-0.23,-0.79l0.75,-0.7l-0.88,0.04l0.48,-0.93l-0.02,-1.12l0.36,-0.1l-0.83,-1.85l0.31,-0.91l1.13,-0.7l0.86,-2.53l-0.87,-0.37l-0.91,0.72l-0.7,-1l0.01,-0.54l0.79,-1.39l1.63,-1.23l0.18,-0.58l-2.05,0.2l0.02,-0.48l-0.18,0.57h-0.33l-0.91,-5.42l-1.62,-0.05l0.13,0.58l-1.31,0.02l-0.27,0.26l0.4,0.21l0.08,0.61l-0.67,-0.47l0.24,1.08l-0.72,0.28l-1.27,-0.15l-2.1,-1.73l-1.45,1.02l-1.48,-2.03l0.01,-0.67l-1.38,-1.09l0.41,-1.31l-0.1,-0.58l-0.49,-0.11l0.5,-0.38l0,0l0.69,0.59l0.09,-0.62l1.94,-0.64l0.61,-3.12l1.32,0.58l0.35,-0.33l0.57,0.12l0.42,1.64l0.51,-0.33l-0.23,-0.54l0.62,-0.83l-0.15,-1.16l0.5,-0.5l-0.13,-0.4l0.38,-0.14l2.15,2.03l0.43,-0.13l0.36,0.32l-0.49,0.47l1.33,-0.08l0.73,0.38l0.35,-0.42l0.8,0.08l0.49,-0.34l0.31,0.88l-0.63,0.1l-0.15,0.36l-1.14,0.12l0.52,0.78l1.35,-0.43l0.25,0.86l0.54,0.29l1.05,0.13l1.27,-0.47l0.1,0.35l0.5,-0.29l0.14,0.22l0.5,-0.25l-0.13,-0.41l0.37,-0.56l2.52,-0.45l0.34,0.76l0.78,0.31l2.33,0.22l0.13,-0.28l0.52,0.03l-0.21,-0.5l0.47,-0.23l0.17,-0.75l1.28,0.42l-0.06,0.61l0.9,0.18l0.14,-0.34l-0.4,-0.24l0.45,-0.14l0.23,-2.15l-0.68,-1.46l0.9,0.32l1.34,-0.77l1.69,0.02L258.73,220.53z"/>
	</g>
</svg>