<?xml version="1.0" encoding="utf-8"?>
<svg xmlns="http://www.w3.org/2000/svg" xmlns:amcharts="http://amcharts.com/ammap" xmlns:xlink="http://www.w3.org/1999/xlink" version="1.1" viewBox="99.84 23.65 89.4 104.32" >

    <g>
        <path id="UA-56" title="Rivne" fill="black" d="M124.96,25.08L128.5,25.6L130.25,24.68L131.03,24.62L132.26,25.01L132.41,25.57L133.88,25.82L135.46,27.66L136,27.56L136.06,28.29L136.76,28.15L137.14,28.46L138.2,27.92L140.53,28.09L141.06,28.54L143.11,28.41L144.05,27.75L144.15,29.96L144.98,29.84L145.7,30.94L146.56,31.16L146.67,31.91L149.08,32L149.5,31.15L150.64,30.76L150.76,30.29L151.51,30.59L154.09,30.51L154.7,31.19L156.11,31.7L156.4,32.15L156.21,33.13L157.39,33.71L157.6,34.23L159.4,33.74L160.48,34.67L161.73,34.74L162.78,35.41L164.34,33.6L171.42,33.32L171.65,39.27L173.04,39.12L173.85,39.81L172.88,41.56L172.85,42.6L176.13,42.46L176.81,41.82L177.85,42.36L179.01,42.5L179.06,42.06L179.9,41.62L180.29,42.32L180.92,41.88L181.12,42.19L180.79,42.96L181.64,43.45L182.42,42.35L181.92,42.38L181.8,41.17L182.11,40.79L182.78,41.54L183.21,40.79L185.61,42.49L186.45,41.9L187.63,42.12L188,42.52L189.04,42.54L189.24,43.33L188.93,44.7L187.55,46.03L187.47,47.09L187.04,47.28L187.04,47.28L187.25,48.29L186.58,48.07L185.69,49.15L184.19,49.38L184.24,52.02L184.88,52.02L185.36,53.51L184.31,53.52L183.9,52.77L182.49,51.84L182.64,50.77L181.69,50.8L181.24,54.88L182.15,55.31L182.17,56.72L181.28,58.06L179.46,58.44L180.22,60.89L179.72,61.4L180.52,61.83L180.6,62.37L178.66,64.25L177.24,66.77L177.39,67.27L176.9,67.52L176.94,69.93L175.5,70.91L175.3,72.02L175.67,72.84L174.08,72.89L173.91,73.37L172.1,73.51L172.19,74.7L171.28,75.13L172.61,78.08L172.63,78.57L172.05,78.8L171.93,79.53L173.23,80.68L172.9,81.28L173.17,81.5L172.9,82.14L173.09,82.8L172.48,83.76L172.79,84.38L172.51,85.94L172.82,86.25L172.8,87.44L173.74,87.84L173.51,88.76L173.9,90.05L172.84,92.54L171.72,92.8L171.42,93.24L171.77,93.57L171.71,94.47L171.01,95.26L172.34,96.25L171.89,97.22L172.39,98.25L171.19,98.5L171.19,98.5L169.04,98.6L169.03,97.18L168.53,96.84L167.06,97.76L166.97,99.02L165.21,98.63L164.9,99.69L164.2,99.98L163.96,100.55L162.3,100.11L161.24,99.38L159.7,101.32L159.01,100.59L158.69,100.69L158.44,101.62L157.29,101.65L157.02,102.33L156.71,102.34L156.58,103.35L157.5,103.06L157.38,103.48L155.85,103.82L155.99,102.87L155.65,102.97L155.38,104.01L155.7,104.72L155.03,104.62L154.84,106.21L154.23,106.05L153.83,107.66L153.11,107.52L152.69,108.97L151.12,108.8L150.62,110.28L149.48,110.78L149.66,111.45L149.18,111.46L149.2,111.95L148.58,111.81L148.45,112.5L147.93,112.91L148.15,113.36L147.42,113.41L147.46,114.13L147.84,114.33L144.17,114.24L143.64,114.91L142.98,114.97L141.74,116.08L141.09,116.86L141.04,117.8L140.48,118.66L138.58,119.04L138.2,118.68L138.2,118.68L136.83,117.75L137.24,116.76L137.02,116L138.09,116.06L138.25,114.16L137.3,114.26L136.26,116.12L132.84,114.68L131.11,116.06L130.88,115.59L129.81,115.22L129.35,114.64L128.39,114.65L126.57,116.63L125.91,118.15L124.69,118.63L123.85,118.43L122.8,118.78L121.54,118.36L121.34,119.06L120.12,118.83L118.17,120.21L116.42,119.03L115.68,120.35L113.86,120.03L113.89,119.59L113,119.48L112.05,120.29L112.11,121.49L112.34,122L113.29,122.18L113.43,122.81L112.21,123.21L112.33,123.85L111.71,124.41L111.47,125.4L109.21,125.78L108.7,127.97L108.7,127.97L107.45,126.98L103.56,121.39L103.75,119.43L104.21,118.74L102.67,117.62L102.59,116.74L103.03,116.46L102.87,115.91L103.35,115.2L103.84,115.2L103.89,113.48L102.57,112.86L101.15,113.29L100.72,113.08L100.72,113.08L100.35,112.41L100.64,111.83L101.25,111.85L101.22,111.42L102.55,110.8L101.96,109.99L101.77,108.73L102.59,108.21L102.97,109.21L103.6,109.09L104.02,108.17L103.53,107.34L102.71,107.33L102.63,106.13L102.25,105.5L101.56,105.69L101.98,104.35L99.84,103.12L102.01,103.46L102.33,101.56L102.08,100.97L101.07,100.18L101.14,99.13L103.36,99.09L103.56,99.52L105.01,99.7L105.35,100.06L106.97,99.89L107.44,98.73L107.91,98.37L107.64,97.44L106.92,97.76L107.21,96.67L106.58,94.89L107.35,94.9L107.93,95.61L108.78,95.69L108.93,96.02L110.5,95.87L109.39,94.75L109.28,94.15L108.91,94.23L109.26,93.7L109.71,93.77L110.2,92.98L109.88,91.87L110.58,92.85L112.67,93.26L112.55,92.83L114.27,92.04L116.78,91.13L117.21,91.38L117.09,90.36L118.28,90.41L120.3,89.81L120.32,90.91L121.39,92.08L120.91,92.66L121.97,92.78L123.12,92.4L123.77,92.85L124.75,95.09L125.16,95.24L125.47,94.86L124.83,94.01L126.37,91.7L126.62,90.65L126.4,88.84L126.91,87.57L126.93,85.92L127.67,84.15L131.46,84.75L132.05,83.58L132.02,83.07L131.17,82.28L130.47,82.19L130.85,78.48L129.52,77.41L130.66,76.96L133.46,76.69L133.58,75.12L134.3,74.86L133.72,72.29L131.34,70.7L129.93,70.88L128.67,70.51L128.93,69.49L128.48,68.72L129.28,68.33L130.44,68.49L130.45,67.59L130.92,67.64L131.06,68.08L132.5,67.45L132.51,66.87L133.11,66.86L132.84,65.33L130.74,63.01L128.89,62.59L128.85,61.68L128.42,61.12L128.64,60.43L127.77,59.73L127.16,59.69L126.9,58.53L125.72,57.98L124.91,57.11L125,55.59L124.74,55.37L125.44,55.07L125.03,54.31L124.15,54.99L123.59,54.78L123.27,55L122.49,54.58L122.62,53.59L121.52,53.6L121.12,54.24L121.46,54.71L120.91,54.53L120.55,54.89L120.61,54.03L120.3,54.06L120.07,53.35L118.59,52.24L118.6,49.2L117.85,49.24L117.98,48.6L117.22,48.58L117.38,47.9L115.64,48.09L115.52,47.52L117.01,46.95L117,46.46L116.08,46.04L116.46,45.16L117.05,44.86L117.29,43.65L116.57,42.47L115.92,42.55L115.62,41.48L114.89,41.92L114.89,41.08L116.15,40.97L116.04,41.34L116.41,41.43L116.8,40.35L117.38,40.53L118.61,38.41L118.96,36.85L119.48,36.34L119.39,35.72L120.04,34.37L119.7,33.48L119.28,33.85L118.94,33.69L119.29,32.86L118.3,31.77L118.54,30.94L119,30.62L118.53,29.38L119.34,27.99L120.35,27.37L120.77,26.69L119.59,26.26L118.26,26.33L117.09,25.55L116.9,25.03L116.9,25.03L120.88,25.49L122.61,25.04L123.31,25.18L122.87,23.77L123.29,23.65L124.77,24.04L124.64,24.81z"/>
	</g>
</svg>