<?xml version="1.0" encoding="utf-8"?>
<svg xmlns="http://www.w3.org/2000/svg" xmlns:amcharts="http://amcharts.com/ammap" xmlns:xlink="http://www.w3.org/1999/xlink" version="1.1" viewBox="380.46 387.17 18.55000000000001 20.109999999999957" >

    <g>
        <path id="UA-40" title="Sevastopol" fill="black" d="M386.26,387.29L387.12,387.17L387.99,387.71L390.17,387.79L390.7,388.26L391.03,389.75L390.36,390.09L389.39,389.95L388.96,390.43L389.06,391.18L389.92,391.99L392.34,391.04L394.03,392.05L394.27,393.15L394.13,393.54L392.97,394.23L392.92,395.98L393.21,396.52L396.06,397.94L396.45,400.24L399.01,404.43L398.53,405.31L397.8,405.31L397.46,405.64L397.42,406.46L397.42,406.46L396.07,406.44L394.07,407.2L392.59,407.28L391.53,405.64L390.19,405.77L389.64,405.43L389.14,403.35L388.49,402.53L388.05,402.32L386.44,402.52L384.75,401.8L384.15,402.09L383.06,400.55L381.2,399.17L380.46,398.1L381.2,397.72L381.21,398.59L381.46,398.38L381.49,398.76L381.74,397.65L382.29,398.65L381.95,397.45L382.33,397.13L384.96,396.51L387.63,396.67L386.65,396.08L384.95,395.79L385.71,395.26L386.17,393.81L385.78,388.1z"/>
	</g>
</svg>