<?xml version="1.0" encoding="utf-8"?>
<svg xmlns="http://www.w3.org/2000/svg" xmlns:amcharts="http://amcharts.com/ammap" xmlns:xlink="http://www.w3.org/1999/xlink" version="1.1" viewBox="365.81 0.61 92.60000000000002 121.79" >

    <g>
        <path id="UA-59" title="Sumy" fill="black" d="M396.01,1.02L396.6,2.53L396.14,3.29L397.24,4.02L398.29,4.35L398.48,3.96L398.81,4.16L399.67,5.43L399.5,7.3L400.11,7.43L400.22,8.03L401.5,8.3L401.86,9.63L403.29,9.83L403.63,10.85L403.5,11.73L405.42,13.12L405.24,14.32L404.52,15.04L404.84,15.84L403.61,16.97L404.21,17.02L404.85,18.59L404.63,19.38L404.83,20.47L406.18,20.91L405.95,21.86L406.37,22.63L407.89,22.58L408.48,24.12L409.15,24.77L408.98,25.26L410.29,25.78L410.28,26.96L409.94,27.4L410.47,27.51L410.97,27.01L411.64,27.01L412.66,28.04L413.67,28.45L414.02,29.23L414.61,29.38L415.58,30.36L415.33,32.39L416.29,33.65L416.43,34.84L415.8,36L413.87,36.56L411.97,36.14L411.35,36.97L409.49,37.4L408.71,37.11L408.37,37.56L406.96,38.01L405.85,37.86L404.32,39.04L404.58,39.36L405.07,39.24L405.29,39.94L405.93,39.99L405.94,40.41L407.14,40.28L407.68,42.81L408.71,42.67L408.85,43.99L409.51,43.47L410.18,44.83L410.26,46.29L411.5,46.38L411.96,47.09L411.87,47.5L411.26,47.51L411.36,49.15L410.61,49.5L409.87,50.44L410.11,51.35L409.82,51.83L409.08,51.97L409.31,52.5L408.94,52.64L409.21,53.62L409.98,53.56L410.65,54.3L411.32,54.2L411.21,54.84L411.76,54.76L412.79,55.31L412.94,55.95L412.08,57.14L411.05,57.06L411.27,57.78L411.06,58.39L410.8,58.34L410.64,58.98L409.74,59.33L410.11,60.16L409.44,60.43L409.34,60.88L412.03,62.34L412.76,62.26L414.57,60.47L416.28,61.32L416.66,61.12L418.02,62L418.86,62.11L419.18,61.63L419.83,61.64L421.16,62.57L421.92,61.49L423.93,61.87L424.21,64.58L425.83,65.85L426.27,65.4L427.76,65.75L428.2,65.21L428.89,65.9L429.64,66.01L429.75,65.32L430.66,64.46L431.15,64.81L431.9,64.57L432.32,64.03L433.22,64.14L433.4,63.46L434.63,62.55L435.61,62.65L436.57,63.32L436.72,64.12L437.45,63.5L437.79,62.69L439.52,62.74L440.41,63.13L439.76,64.76L439.96,65.96L439.59,66.36L440.06,66.92L440.18,67.96L441.18,68.49L440.81,69.27L441.29,69.89L441.19,70.38L440.59,70.27L440.35,70.69L440.87,70.65L441.71,72.31L442.53,72.65L443.79,71.63L444.5,72.04L444.58,71.61L445.63,71.22L445.66,70.94L447.08,71.75L448.02,71.62L448.38,72.24L449.02,72.49L449.14,73.73L448.33,74.09L447.9,74.72L446.15,74.3L447.25,76.38L446.45,78.13L446.64,78.6L447.79,78.75L447.82,79.11L448.55,79.21L448.88,79.69L448.98,80.34L448.23,80.71L448.79,81.52L448.29,82.05L449.02,82.49L449.51,83.39L449.37,85.81L450.63,86.79L451.5,86.77L451.87,87.08L451.31,88.77L451.46,89.18L450.73,89.76L450.83,90.17L451.21,90.25L450.92,91.04L451.22,91.77L452.08,92.47L451.82,93.62L450.98,93.06L448.81,93.82L448.69,94.47L449.73,96.43L448.65,97.67L449.9,98.63L450.14,100.26L451.49,102.47L454.37,104.28L454.63,103.76L455.15,104.49L455.12,107.85L456.1,108.42L455.8,108.88L456.57,109.63L457.8,109.65L457.8,109.65L457.62,110.01L458.41,110.21L458.23,111.05L457.73,111.2L457.59,111.78L456.99,111.78L456.51,111.43L456.65,111.17L455.45,110.88L454.75,111.41L452.87,111.54L453.46,112.32L453.11,112.9L452.44,112.46L452.12,112.76L450.9,111.64L450.28,111.58L449.73,110.68L449.1,111.39L448.2,111.41L448.26,112.66L446.54,111.41L445.42,112.97L446.52,113.72L445.62,114.33L444.39,114.27L444.1,115.83L443.45,115.81L443.3,116.24L442.03,115.64L441.85,116.12L440.45,115.42L439.18,116.78L437.75,117.4L437.8,118.16L436.84,119.48L436.4,119.38L436.36,118.75L435.66,118.55L435.54,118.89L435.32,118.58L434.06,118.46L434.43,119.81L433.39,120.17L433.39,120.17L430.24,119.54L429.85,119.89L428.72,119.81L428.6,120.1L426.66,120.58L426.9,119.97L426.37,119.74L425.26,120.42L425.25,122.38L424.54,122.33L424.67,122L424.38,121.82L423.89,122.4L423.59,122.01L422.89,122.35L421.48,121.53L420.93,121.88L420.02,121.2L419.48,120.05L419.72,119.24L419.22,118.7L420.48,117.3L420.89,116.27L420.17,115.26L419.51,115.11L419.43,115.51L419.06,115.24L418.81,113.26L416.73,112.98L415.46,111.87L415.04,111.44L415.39,110.4L414.33,109.3L414.62,108.84L410.3,105.27L409.93,100.81L408.96,99.99L408.36,100.6L407.38,100.44L405.58,101.31L405.52,102.26L404.88,102.8L404.42,102.36L405.02,101.54L403.66,101L402.39,101.87L402.52,101.25L399.97,99.32L398.68,100.98L397.86,100.08L397.24,100.08L395.13,100.98L395.28,101.41L396.17,101.52L396.45,101.9L396.26,102.3L394.49,103L393.35,103.96L392.67,104.01L391.9,103.43L387.03,102.07L385.91,102.35L385.41,102.85L384.61,101.96L384.02,103L383.83,102.38L383.33,102.22L382.38,102.59L382.35,103.07L381.88,102.71L381.61,101.85L380.42,101.9L380.32,100.71L378.48,100.67L378.36,100.08L377.82,99.92L377.06,98.98L375.84,99.73L375.7,101.27L375.14,101.57L374.14,101.31L373.53,100.53L371.66,101.49L371.16,100.88L369.99,100.72L369.99,100.72L369.37,99.63L371.01,97.6L371.12,96.96L371.83,96.77L371.21,96.38L371.81,94.52L371.65,94.04L372.72,93.48L372.82,91.47L372.36,90.57L374.91,89.98L375.76,89.41L375.53,89.13L374.93,89.2L374.69,88.65L374.07,88.65L372.88,86.32L373.37,85.9L372.95,84.45L373.92,83.29L373.41,83.07L373.78,82.26L373.47,81.21L373.88,80.81L374.71,80.82L374.35,79.22L374.49,77.23L373.17,77.3L372.76,77.62L372.41,77.43L371.67,74.78L370.34,75.56L370.33,76.07L369.13,75.56L369.68,73.8L370.53,73.17L369.75,72.51L370.09,71.47L369.02,71.26L368.97,70.76L366.34,70.28L366.2,70.54L365.81,70.19L367.41,67.44L366.4,66.46L367.16,65.29L366.88,65.03L367.36,64.49L368.61,64.44L369.06,64.13L368.78,62.91L370.02,61.52L369.7,60.88L370.19,59.59L369.08,59.34L369.7,59.2L369.26,58.84L369.96,58.62L370.37,57.73L369.89,56.51L368.95,56.53L369.02,55.3L368.35,53.85L369.31,53.15L369.62,53.41L368.98,54.13L369.78,54.56L369.76,55.17L370.62,55.36L371.45,55.23L371.38,54.52L370.88,54.48L370.65,54.01L371.45,54.08L371.65,54.59L372.11,54.62L372.26,53.72L371.66,53.39L372.2,52.67L371.56,52.07L371.8,50.47L372.25,49.9L372.1,49.05L372.34,48.4L372.74,48.58L374.19,47.8L373.95,46.1L373.41,45.8L372.97,44.73L373.09,44.31L374.66,44.36L375.19,43.79L374.13,43.6L372.92,42.21L372.83,40.48L372.02,40.24L372.53,39.17L372.26,36L371.19,34.79L370.77,33.33L370.38,33.21L370.66,32.79L371.11,32.84L371.83,31.27L372.61,30.92L372.34,30.15L371.97,29.99L371.79,28.38L373.62,27.22L373.65,26.15L375.14,26.03L375.08,25.59L376,25.53L376.38,24.99L377.43,25.25L377.64,24.58L378.27,24.38L378.75,24.79L379.58,24.77L380.36,22.15L379.01,20.5L377.98,20.06L378.39,19.17L379.7,19.21L380.83,18.13L381.31,18.15L382.11,19.43L383.51,18.81L384.58,18.78L384.6,16.07L384.3,16.35L383.18,15.96L382.53,16.14L382.73,15.64L382.43,14.94L381.61,14.65L381.69,14.09L379.24,12.96L378.78,13.24L379.28,13.48L378.59,13.38L378.77,12.43L379.13,12.32L378.39,11.23L378.28,10.49L378.96,9.8L378.39,9.12L379.54,8.67L380.16,7.55L379.88,6.73L380.32,6.67L380.67,6.12L380.63,5.39L381.05,4.91L380.75,4.55L381.27,4.36L380.88,3.45L381.68,3.15L382.15,1.9L382.15,1.9L382.8,2.1L382.55,1.45L383.16,0.69L383.47,1.19L385.08,1.26L385.3,2.04L384.99,2.5L384.36,2.6L383.93,3.66L386.54,4.33L386.77,3.77L386.13,3.13L387.36,3.77L388.17,2.55L389.95,2.23L390.66,1.71L390.78,1.23L391.85,0.95L392.39,1.41L394.4,0.61z"/>
	</g>
</svg>