<?xml version="1.0" encoding="utf-8"?>
<svg xmlns="http://www.w3.org/2000/svg" xmlns:amcharts="http://amcharts.com/ammap" xmlns:xlink="http://www.w3.org/1999/xlink" version="1.1" viewBox="406.25 223.7899999999999 104.9799999999999 102.37999999999988" >

    <g>
		<path id="UA-23" title="Zaporizhzhia" fill="black" d="M406.25,257.31l2.87,-0.71l3.16,-1.4l4.32,-0.46l5.2,-1.73l2.14,0.15l2.32,0.92l4.72,1.09l1.58,-0.06l1.3,-0.63l0.29,-0.84l-0.26,-0.96l-0.79,0.13l0.39,-0.49l-0.83,-0.4l0.37,-0.16l-0.04,-0.52l0.21,0.28l0.27,-0.47l-0.42,-1.68l-0.53,0.03l-0.33,-1.8l1.11,-0.32l-0.25,-1.68l0.83,-0.1l-0.06,-1.32l0.29,-0.11l-0.21,-1.33l-2.16,0.38l-0.45,-2.98l0.77,-0.56l-0.13,-1.08l-0.94,0.04l-0.34,-1.36l-1.47,0.68l-0.51,-2.55l1.68,-0.24l-0.08,-0.63l0.84,-0.32l0.21,0.56l1.21,-0.27l-0.36,-2.54l-1.24,0.09l-0.3,-1.57l-0.38,-0.02l-0.24,-1.78l1.2,-0.26l-0.67,-3.93l0.75,-0.02l0.07,0.28l1.17,-0.16l-0.01,2.02l2.34,-0.3l0.18,0.34l1.55,-0.4l0.78,-1.18l1.43,-0.53l2.37,0.07l1.66,-0.67l0.91,0.44l1.51,-0.5l1.52,1.09l6.15,1.44l0.13,0.91l6.16,-3.16l1.3,2.18l2.16,-0.17l0.28,1.6l5.11,-1.32l0.59,0.42l0.03,0.39l-0.46,0.29l0.05,0.64l0.27,-0.22l0.24,0.23l-0.39,0.6l2.6,-0.6l0.44,1.75l-1.07,0.41l0.24,0.63l0.74,0.19l0.27,1.39l-0.7,0.37l0.05,0.26l0.72,-0.25l0.38,1.77l0.82,-0.54l0.37,0.55l-0.36,0.32l0.65,1.03l-0.42,1.91h-1.52l0.12,0.91l2.68,-0.02l1.34,-0.57l-0.26,1.04l0.36,0.32l2.34,0.01l0.39,0.77l1.74,-0.25l-0.03,-0.98l1.64,0.13l0.1,0.43l2.75,0.28l2.09,-0.26l0.08,-0.42l2.05,-0.52l0,0l0.65,-0.15l0.13,0.48l-0.27,1.16l-0.41,0.09l0.03,1.56l2.8,-0.39l0.52,3.28l0.49,0.03l0.4,2.44l2.63,-0.28l-0.58,0.99l-0.66,-0.18l-0.08,0.34l-1.15,0.18l0.22,1.39l1.31,-0.21l0.03,0.49l-0.71,0.15l0.09,0.7l0.62,0.29l2.18,-1.05l2.2,3.8l1.76,-1.41l0.69,0.99l0.49,-0.35l0.73,1.17l0.69,-0.74l1.82,3.05l0.25,-0.24l2.41,2.14l0.8,-1.48l0.49,0.22l-0.11,0.49l1.78,0.08l-0.09,1.58l-0.28,0.02l-1.3,3.17l0.28,0.88l-1.34,0.68l-0.86,-1.93l-0.98,0.25l0.45,1.75l-1.41,0.9l0.07,0.38l-1.45,0.65l-0.35,-0.67l-2.68,0.17l-0.16,-0.45l-0.6,0.1l1.24,5.81l-2.65,-0.24l0.14,0.27l-1.17,0.07l1.17,1.37l0.37,-0.13l0.31,0.51l0.37,-0.42l0.11,0.59l0.42,-0.27l0.14,0.4l0.27,-0.11l1.18,1.74l0.63,-0.16l0.38,1.91l-0.9,0.55l3.24,1.53l0.67,-0.54l0.82,0.93l-1.16,1.64l1.7,1.32l-1.4,0.82l-0.21,-0.23l-2.41,1.95l1.42,2.25l0,0l-1.02,0.67l-1.51,0.26l-2.81,2.41l-1.42,2.62l-1.46,3.88l-1.85,2.49l-0.69,-0.03l1,-0.69l0.17,-0.67l1.37,-1.26l0.28,-0.72l-0.69,-1.52l-1.29,-1.28l-1.89,-1.07l-3.48,0.12l-1.39,0.76l-5.33,1.79l-1.3,0.89l-2.39,2.9l-3.62,6.23l-0.93,1.04l-0.7,-0.16l-1.16,0.73l-0.3,-0.03l0.07,-0.45l0.54,0.2l0.56,-0.39l0.38,-0.96l0.64,-0.05l1.42,-1.09l1.44,-2.46l0.03,-1.51l-0.88,-1.28l-1.57,-0.93l-1.16,0.06l-1.47,0.59l-2.88,-0.51l-3.21,0.39l-1.81,0.75l-4.94,2.88l-4.53,4.9l-4.86,2.35l-3.14,4.15l-6.1,10.17l-1.94,1.53l-4.45,1.63l0,-1.2l1.46,-1.11l-0.08,-0.64l1.03,-0.54l2.62,-0.49l2.57,-1.23l0.33,-1.63l2.29,-3.2l0.28,-1.39l0.67,-0.14l1.28,-2.04l-0.26,-0.19l-0.54,0.28l-0.45,1.13l-0.62,-0.98l-1.24,-0.12l-0.39,-2.17l0.62,-0.91l-0.03,-0.82l-0.33,-0.51l-1.69,-0.63l-0.67,-1.22l-0.43,-0.15l0.34,-0.95l-0.96,0.56l0.74,2.17l0.82,0.72l0.06,2.08l-0.71,1.24l-2.05,1.31l-0.86,1.99l0,0l-0.97,0.09l-0.61,-8.94l-1.13,0.15l-2.59,-1.6l-1.8,0.27l-0.31,-1.5l0.46,-0.13l-0.18,-1.33l-4.53,0.72l-0.27,-1.55l-0.89,0.03l-0.31,-1.77l1.44,-0.41l-0.32,-2.81l-2.11,0.27l-0.1,-0.66l-1.6,0.18l-0.27,-1.82l1.11,-0.16l-0.06,-0.65l2.67,-0.37l-0.01,-0.44l0.47,-0.03l0.01,-1.06l0.5,-0.02l-0.27,-2.12l2.04,-0.31l-0.41,-2.67l-1.73,0.15l-0.58,-4.06l-1.65,0.26l-0.13,-1.04l-2.08,0.26l-0.12,-0.98l-0.65,-0.03l-0.31,-1.51l-0.76,0.1l-0.48,-4.17l-1.11,0.1l-0.98,-7l1.31,-0.24l-0.12,-0.81l-0.27,-0.79l-0.96,0.15l-0.34,-1.66l1.09,-0.33l0.15,-0.82l-3.42,0.67l0.13,1.13l-0.68,0.14l0.1,0.52l-0.91,0.19l-0.57,-0.47l-0.97,0.13l-0.77,0.79l-0.45,-0.37l-0.67,-4.02l-0.45,0.02l-0.62,-3.64l-0.58,-0.64L406.25,257.31z"/>
	</g>
</svg>