<?xml version="1.0" encoding="utf-8"?>
<svg xmlns="http://www.w3.org/2000/svg" xmlns:amcharts="http://amcharts.com/ammap" xmlns:xlink="http://www.w3.org/1999/xlink" version="1.1" viewBox="252.83 116.17 111.16999999999999 92.05999999999999" >

    <g>
        <path id="UA-71" title="Cherkasy" fill="black" d="M337.77,116.17L338.04,116.39L337.62,117.01L339.31,118.35L339.77,119.45L343.93,120.66L344.12,121.94L342.36,122.36L343.04,123.08L342.52,123.89L344.38,126.21L344.74,126.16L345.08,125.2L345.68,125.68L345.57,126.37L346.25,126.48L346.74,129.23L348.32,130.26L348.03,131.56L348.43,131.92L348.09,132.06L347.93,133.22L348.62,134.02L347.52,134.7L347.13,134.21L346.56,134.74L348.66,137.44L349.13,138.82L350.92,138.35L351.36,139.98L352.7,140.17L353.28,141.16L353.32,143.75L356.31,144.82L357.01,145.79L357.86,145.99L357.5,146.64L358.01,148.31L357.48,148.87L359.46,150.3L359.2,150.57L359.25,152.99L357.92,154.32L356.77,154.36L356.68,156.96L355.96,157.55L356.95,158.21L356.82,159.48L357.28,160.29L358.04,160.26L358.81,160.86L358.9,161.95L356,161.86L354.03,160.74L352.14,160.52L351.06,159.17L350.03,161.76L349.47,162.28L349.55,162.58L350.04,162.61L349.64,163.27L350.99,164.4L352.37,164.85L352.91,165.55L353.83,165.91L354.52,167.17L355.15,166.76L356.01,167.44L358.1,166.96L359.01,167.34L359.64,168.29L361.44,167.37L362.8,167.51L362.8,167.51L362.47,168.35L360,170.65L359.48,171.89L360.06,172.77L364,174.12L363.99,175.25L361.39,176.38L361.9,176.79L362.33,178.8L361.89,179.62L363.33,180.24L363.37,180.57L362.43,180.67L362.42,181.17L358.68,181.97L358.56,181.36L357.47,181.48L357.37,181.1L356.72,181L356.42,181.53L356.81,182.36L354.43,182.52L354.34,182.05L353.55,182.74L353.28,182.31L352.11,181.91L352.39,183.28L351.5,183.32L350.72,179.46L349.89,179.84L349.64,178.69L349.88,178.43L349.16,178.19L348.85,177.52L348.15,178.69L346.75,178.49L346.34,178.24L346.54,177.6L346.23,176.5L345.8,176.63L345.69,176.06L343.94,176.44L343.46,175.84L343.39,176.13L342.66,176.15L342.62,177.13L341.7,177.18L341.19,180.88L340.12,180.29L339.84,181.54L338.38,181.97L338.34,182.63L339.04,183.16L339,184.43L338.73,184.68L337.4,184.74L337.17,185.16L336.79,185.03L336.9,184.35L335.52,184.38L334.75,183.67L334.01,184.58L332,184.98L331,186.2L331.02,184.95L328.56,183.56L327.94,183.52L327.25,182.78L326.94,183.28L325.32,183.94L323.73,183.72L323.22,185.48L321.01,185.06L319.6,186.01L320.12,184.98L319.72,184.68L319.14,185.29L319.53,185.52L319.24,185.8L319.66,186.69L318.93,187.32L319.19,187.66L318.67,188.59L318.97,188.9L317.88,189.59L317.86,190.3L315.33,191.46L314.35,192.33L314.7,192.77L314.51,193.06L313.97,192.72L313.97,193.23L313.3,193.78L313.37,193.11L312.88,194.09L312.04,193.56L311.95,194.14L311.13,194.17L310.46,192.62L308.88,193.08L308.53,192.2L307.36,192.03L306.99,192.69L305.84,192.45L305.18,193.46L304.79,193.2L304.44,193.66L304.22,193.47L303.91,194.14L303.19,193.58L302.99,193.93L302.38,193.67L301.9,192.73L301.57,192.88L300.78,192.37L300.06,192.56L299.82,192.21L298.75,192.37L298.33,191.94L298.07,191.97L298.16,192.55L296.45,192.4L296.39,193.04L296.01,193.19L294.34,192.9L293.61,192.02L293.33,192.68L291.67,192.05L291.57,192.48L290.9,192.54L289.64,192.13L287.68,192.97L287.62,193.56L287.24,193.42L286.73,194.59L285.6,194.53L286.76,195.76L286.33,197.45L284.94,197.94L284.09,199.26L285.45,200.41L285.06,200.89L285.35,201.14L285.26,202.33L282.41,202.5L281.5,201.54L279.81,201.98L279.27,204.29L277.15,204.62L276.48,205.16L274.79,205.52L274.83,206.34L273.95,206.67L273.57,206.73L271.66,205.53L271.24,205.92L271.07,207.03L269.94,208.23L269.23,208.16L267.75,206.73L265.02,207.19L265.02,207.19L265,206.28L266.2,205.98L266.32,205.09L265.85,204.8L266.79,204.83L266.27,202.07L264.69,201.59L264.33,200.97L264.44,200.24L265.64,200.08L265.89,198.95L265.35,198.92L265.24,198.17L264.21,197.84L264.28,197.03L263.4,197L262.02,195.6L261.43,195.57L261.61,195.15L261.2,194.84L261.57,194.02L262.23,193.9L261.46,192.71L261.62,192.37L258.27,191.28L257.94,188.14L257.1,187.6L256.77,186.04L256.41,185.67L257.03,185L256,184.47L255.51,184.75L254.33,183.46L254.71,182.88L254.32,182.48L255.8,180.21L255.46,180L255.43,179.06L254,179.66L252.83,177.5L253.13,177.38L253.13,176.87L253.56,177.56L254.34,175.39L255.56,175.79L255.36,174.5L257.12,173.98L257.08,173.39L256.67,173.39L256.4,172.82L256.83,169.99L256.1,168.71L256.81,168.87L257.13,168.44L257.13,168.44L257.84,168.6L257.49,169.38L256.86,169.59L258.15,171.02L259.81,170.69L260.07,171.1L261.21,170.59L262.18,170.69L261.88,169.93L262.64,169.67L263.79,167.42L264.61,167.09L264.57,165.66L264.14,164.65L264.33,164.08L264.74,164.3L266.01,163.94L266.56,163.19L267.08,163.06L268.62,163.5L269.03,165.4L269.72,166.24L270.24,165.45L269.78,164.48L270.49,164.16L271.05,162.97L271.15,163.45L272.9,163.28L272.5,166L278.36,167.02L278.44,167.96L278.75,168.01L279.59,164.67L280.29,164.48L280.17,163.24L280.97,163L281,162.03L282.12,161.34L283.66,163.27L284.32,163.27L285.43,161.92L285.87,162.09L286.66,161.12L287.7,161.82L288.91,161.83L290.84,163.08L291.5,162.41L292.62,162.42L293.25,161.92L295.46,162.03L296.04,161.53L296.86,161.66L297.29,160.52L297.65,160.51L297.79,159.15L297.29,158.69L299.82,158.32L300.19,157.82L300.13,157.01L300.95,155.89L301.48,156.63L301.33,155.77L302.07,155.5L303.12,154.48L303.37,152.08L303.77,151.46L304.13,151.28L304.67,151.84L304.84,151.35L305.16,151.39L304.72,150.48L305.06,150.14L304.41,150.04L304.58,148.89L306.91,145.34L306.8,144.5L307.26,144.72L307.43,144.3L306.72,143.9L307.07,142.42L307.43,142.19L307,141.2L307.26,139.94L306.41,139.25L307.42,137.08L307.08,135.99L308.24,135.24L308.79,135.74L309.86,134.34L312.73,133.43L312.81,133.04L311.89,131.65L311.4,131.5L311.38,131.1L311.8,130.8L310.54,130.11L309.79,130.45L310.6,129.52L310.01,129.45L310.31,128.73L313.08,128.49L314.34,128.72L314.91,129.23L315.05,129.64L314.33,131.67L314.37,133.42L314.95,134.65L315.83,134.85L316.11,135.58L316.78,135.47L316.99,136.4L317.4,136.29L317.57,134.91L318.88,134.71L319.24,133.69L319.77,133.53L319.94,133.04L320.7,133.09L320.86,135.78L324.21,136.08L325.5,133.88L326.14,133.82L326.07,132.47L326.98,131.65L327.64,130L330.08,130.17L330.52,131.3L331.09,130.07L330.47,127.23L332.7,125.93L333.22,126.01L333.37,125.52L331.42,125.05L330.69,125.23L330.81,122.86L332.91,121.69L332.43,120.89L332.05,121.02L331.68,119.95L332.65,120.23L333.78,117.99L333.63,117.62L334.32,117.41L335.75,118.32L336.75,116.53L337.44,116.61z"/>
    </g>
</svg>