<?xml version="1.0" encoding="utf-8"?>
<svg xmlns="http://www.w3.org/2000/svg" xmlns:amcharts="http://amcharts.com/ammap" xmlns:xlink="http://www.w3.org/1999/xlink" version="1.1" viewBox="93.74 196.84 88.86 48.079999999999984" >

    <g>
        <path id="UA-77" title="Chernivtsi" fill="black" d="M118.17,196.94L121.02,197.5L121.81,199L122.55,197.47L123.09,196.85L123.48,196.84L124.13,197.22L125.85,199.54L125.7,200.81L126.54,200.68L127.66,201.34L128.54,201.09L129.91,199.58L131.46,200.17L131.81,198.52L132.47,198.28L132.78,198.63L132.99,200.37L132.25,201.51L133.95,203.88L135.04,203.12L134.98,202.38L133.98,200.74L134.15,200.01L134.7,199.68L135.61,200.72L135.72,203.34L136.43,204.36L137.41,204.52L139.82,203.77L140.95,205.35L141.76,204.96L142.69,205.41L144,204.01L145.74,203.87L145.74,203.87L147.19,203.52L149.45,207.9L151.06,208.23L151.96,207.71L151.34,206.07L151.45,205.42L152.23,205.47L153.03,206.53L154.39,206.5L154.95,206.09L154.75,205.41L153.76,204.51L153.58,203.72L151.93,203.97L151.61,203.55L151.75,203.02L152.25,202.64L153.04,202.65L154.56,204.12L155.39,204.15L155.8,203.8L155.91,203.09L155.76,202.35L155.13,201.73L155.43,201.29L156.11,201.74L156.46,203.32L157.14,203.42L157.71,202.39L157.11,200.9L157.97,200.16L158.7,200.44L158.5,201.58L159.17,202.8L160.5,203.69L161.27,203.34L162.14,201.99L163.48,201.92L164.25,201.28L164.57,202.18L167.46,202.87L168.56,202.82L169.32,201.92L170.13,201.58L172.89,202.47L173.53,201.56L172.62,200.31L172.89,199.54L174.08,199.52L175.41,200.72L176.2,200.35L176.5,199.21L177.18,199.15L177.18,199.15L179.87,200.71L180.87,203.72L180.77,205.39L181.44,206.66L182.6,207.3L182.6,207.3L181.56,208.06L180.52,208.2L179.61,210.29L177.67,210.3L177.32,209.78L177.39,209.04L176.97,208.69L176.42,208.35L176.42,208.78L176.07,208.39L175.96,208.79L175.38,208.68L174.15,212.3L173.48,211.81L172.51,212.17L171.8,211.39L171.1,211.18L170.19,211.94L169.24,212.18L167.68,210.37L167.35,209.1L166.72,209.79L165.09,209.7L165.9,210.33L166.2,211.83L166.09,212.08L165.5,211.71L164.64,211.88L164.33,212.98L162.16,212.32L162.07,212.68L161.05,211.73L161.1,210.96L160.4,209.88L159.52,210.18L157.1,209.93L156.26,210.93L155.32,210.37L154.89,210.68L156.6,213.19L157.56,213.73L158.06,213.34L158.53,213.71L158.76,215.28L158.28,216.25L157.66,216.35L156.94,215.92L156.39,214.91L155.81,215.28L154.25,213.07L153.91,213.15L154.34,214.53L153.69,214.67L153.65,215.07L152.76,215.72L152.76,216.1L151.71,217.25L152.09,218.11L152.04,218.6L151.57,218.45L151.72,219L150.94,219.04L150.57,218.67L150.13,218.93L150.07,220.02L149.39,219.73L149.25,220.22L148.49,220.58L146.61,220.01L146.15,220.73L145.42,220.92L145.53,221.31L145.01,220.98L143.83,221.7L143.41,221.16L142.91,221.76L142.52,221.48L142.46,221.84L142,221.83L141.8,222.18L142.05,223.08L140.82,224.36L140.03,226.95L137.96,228.5L137.45,230.76L136.98,231.39L134.38,232.2L132.88,231.72L129.1,232.6L127.86,232.28L127.52,232.95L127.01,233.12L125.99,232.65L124.81,232.98L124.3,233.62L123.09,234.19L120,234.04L118.78,233.65L116.79,234.25L107.48,235.42L106.02,236.5L104.71,236.54L104.36,238.2L102.55,240.7L102.5,241.59L101.87,241.68L101.37,242.19L100.82,243.44L99.18,244.1L98.73,243.84L98.21,244.92L97.14,244.47L96.79,244.92L94.22,244.84L94.22,244.84L95.07,241.49L96.29,239.77L96.76,238.39L96.25,238.2L96.34,237.83L95.11,236.7L95,236.2L95.49,236L95.38,235.24L94.1,233.83L94.38,233.49L94.06,233.33L94.23,232.93L93.74,231.33L94.16,230.63L93.92,229.72L96.67,226.71L96.2,225.61L96.38,225.25L96.93,225.02L98.06,225.47L98.19,224.61L99.11,224.38L99.14,223.06L100,222.85L99.75,221.92L100.28,221.68L101.18,222.04L101.51,221.87L101.59,221.2L100.79,220.54L100.88,220L100.5,219.74L101.75,218.64L103.07,218.39L105.73,214.56L108.2,212.03L110.38,211.11L111.67,211.13L112.75,210.71L114.57,211.01L115.38,211.76L117.66,211.76L118.01,210.91L117.28,208.41L117.33,202.17L116.84,201.22L116.89,199.47L116.64,199.13z"/>
	</g>
</svg>