<?xml version="1.0" encoding="utf-8"?>
<svg xmlns="http://www.w3.org/2000/svg" xmlns:amcharts="http://amcharts.com/ammap" xmlns:xlink="http://www.w3.org/1999/xlink" version="1.1" viewBox="487.65 168.03 86.28999999999985 119.63000000000002" >

    <g>
        <path id="UA-14" title="Donetsk" fill="black" d="M532.55,168.03l0.63,1.35l0.61,-0.13l0.94,1.12l-1.42,0.91l0.33,0.43l-0.31,0.31l0.52,0.48l2.49,1.09l1.85,0.09l0.25,-1.24l1.17,0.21l-0.65,4.21l-0.29,0.32l1.6,3.26l-1.56,0.52l0.01,1.04l-0.82,-0.45l-0.79,1.48l1.11,0.04l0.14,0.46l1.44,-0.03l0.9,0.46l0.7,0.03l0.37,-0.42l2.12,0.31l0.63,-0.24l-0.04,4.74l1.14,-0.12l0.55,0.94l1.34,-0.12l0.05,0.68l-0.87,0.08l-0.36,0.5l0.17,1.38l-0.69,1.16l0.79,0.82l1.1,0.12l0.25,0.72l-0.71,0.27l0.36,0.52l-0.01,0.96l-0.93,0.22l-0.07,0.45l-0.84,0.28l0.47,6.27l1.43,1.7l-0.59,0.91l0.15,0.83l-0.36,0.01l0.87,0.61l-0.21,0.51l1.06,0.85l0.97,-0.21l0.28,0.62l1.73,-0.81l0.52,3.55l0.64,-0.19l0.9,0.83l-1.99,1.25l0.14,1.09l-0.44,0.51l-0.06,1.1l1.42,0.75l3.04,-0.36l1.23,1.19l-0.02,1.37l0.77,1.21l-0.07,0.65l-0.43,0.42l0.33,0.63l1.01,0.54l1.93,0.04l-0.09,0.63l4.34,1.47l-0.38,1.46l0.71,0.4l0.03,0.8l-0.54,0.9l0.78,1.6l6.83,0.47l0.02,2.41l0.58,0.46l0.55,-0.14l0.64,0.56l-0.92,2.35l0.3,1.14l0,0l-3.94,0.08l-2.68,-0.35l-0.16,0.46l-1.31,0.18l-0.36,1.27l0.12,1.13l-1.3,0.05l-0.28,1.31l0.48,0.88l-0.2,1.65l-0.67,0.59l0.1,2.1l-1.24,0.22l-0.05,-0.93l-2.33,0.01l0.07,1.49l-1.29,0.01l0.01,0.73l-0.41,0.52l-5.31,0.04l-0.13,1.26l-3.55,0.1l-0.01,1.96l-1.42,0.02l-0.16,1.58l-0.73,0.06l0.03,1.78l0.3,0.3l-0.19,1.21l0.52,0.25l-0.05,4.09l-0.53,0.02l0.04,0.8l-1.21,0.28l-1.04,2.14l0.07,0.94l3.88,0.12l-0.33,1.25l0.14,0.82l-0.3,0.36l-1.14,0.04l-0.07,0.75l-1.85,0.44l0.42,0.87l-0.26,3.64l-0.75,1.56l-1.72,2.08l-1,0.17l-1.22,-2.02l-1.25,-0.4l-1.09,1.12l-1.26,-0.4l-0.86,0.14l-2.52,-0.8l-3.47,1.24l-2.92,0.31l-2.61,-0.74l-3,0.67l-0.7,0.59l0.21,0.86l-1.11,0.45l-5.19,7.51l-1.32,1.18l-0.27,0l1.12,-1.13l-0.19,-1.03l-1.09,-1.13l-1.71,-0.81l-1.64,0.95l-0.81,0.87l-1.33,0.32l-2.02,1.17l0,0l-1.42,-2.25l2.41,-1.95l0.21,0.23l1.4,-0.82l-1.7,-1.32l1.16,-1.64l-0.82,-0.93l-0.67,0.54l-3.24,-1.53l0.9,-0.55l-0.38,-1.91l-0.63,0.16l-1.18,-1.74l-0.27,0.11l-0.14,-0.4l-0.42,0.27l-0.11,-0.59l-0.37,0.42l-0.31,-0.51l-0.37,0.13l-1.17,-1.37l1.17,-0.07l-0.14,-0.27l2.65,0.24l-1.24,-5.81l0.6,-0.1l0.16,0.45l2.68,-0.17l0.35,0.67l1.45,-0.65l-0.07,-0.38l1.41,-0.9l-0.45,-1.75l0.98,-0.25l0.86,1.93l1.34,-0.68l-0.28,-0.88l1.3,-3.17l0.28,-0.02l0.09,-1.58l-1.78,-0.08l0.11,-0.49l-0.49,-0.22l-0.8,1.48l-2.41,-2.14l-0.25,0.24l-1.82,-3.05l-0.69,0.74l-0.73,-1.17l-0.49,0.35l-0.69,-0.99l-1.76,1.41l-2.2,-3.8l-2.18,1.05l-0.62,-0.29l-0.09,-0.7l0.71,-0.15l-0.03,-0.49l-1.31,0.21l-0.22,-1.39l1.15,-0.18l0.08,-0.34l0.66,0.18l0.58,-0.99l-2.63,0.28l-0.4,-2.44l-0.49,-0.03l-0.52,-3.28l-2.8,0.39l-0.03,-1.56l0.41,-0.09l0.27,-1.16l-0.13,-0.48l-0.65,0.15l0,0l-0.24,-1.56l-0.93,0.06l-0.24,-1.37l1.63,-0.32l0,-0.46l1.66,0.01l-0.4,-2.07l-1.46,0.17l-0.27,-1.91l0.49,-0.14l-0.78,-0.63l0.7,-0.43l-0.58,-1.01l0.43,-0.6l-0.19,-1.41l0.81,-0.25l-0.05,-0.28l0.67,0.44l0.93,-0.5l0,0h-0.35l0,0l0.49,-0.36l0.3,0.59l0.47,-0.11l1.2,0.55l0.21,-0.32l0.79,0.75l0.21,0.92l0.46,-0.3l0.44,0.56l0.99,-0.29l0.25,0.6l1.43,0.38l0.17,-0.99l0.6,0.01l0.66,-1.35l-0.77,-5.25l0.45,0.32l0.24,-0.72l0.41,0.2l0.19,-0.33l0.88,0.02l-0.88,-5.89l-1.27,0.17l-0.11,-0.54l-1.74,0.2l-0.31,-1.76l0.15,-0.86l0.46,-0.38l-0.2,-1.72l0.4,-0.18l-0.33,-0.23l0.48,-0.29l0.49,0.14l-0.15,-1.33l-0.39,-0.03l-0.16,-2.06l0.8,-0.22l-0.14,-1.43l1.87,-0.33l-0.17,-1.15l-1.01,-0.31l-0.4,-0.92l-1.6,-0.02l-0.16,-1.41l-0.94,-0.22l-1.11,0.21l-0.22,-1.51l0,0l-0.57,-1.33l-0.26,-2.03l0.42,-0.08l0.29,-0.57l-0.74,-1.92l-0.14,-1.31l-0.61,0.01l-0.11,-0.32l1.01,-1.54l1,0.22l0.04,0.61l0.76,0.4l1.45,0.08l0.21,0.34l0.58,-0.07l0.56,-1.41l3.79,0.38l2.16,2.26l0.4,-0.82l-0.66,-0.07l-0.04,-0.4l-0.91,-0.75l0.42,-0.65l0.35,0.03l0.17,-0.78l1.48,0.21l0.19,-1.01l0.44,0.08l0.41,-0.97l1.64,0.43l-0.15,0.49l1.67,0.96l0.04,-3.31l0.7,-0.48l0.47,-0.97l1.32,0.03l0.08,-0.82l1.99,0.07l0.16,-0.91l-0.75,-0.18l0.35,-0.77l-0.84,-0.74l0.39,-0.46l0.3,0.19l0.23,-0.35l-0.38,-0.21l0.93,-0.42l0.14,-0.46l0.54,0.62l0.44,-0.06l0.1,-1.64l0.51,0.05l-0.16,-1.27l0.68,-0.12l0.39,-0.52l1.09,0.13l0.05,0.3l0.49,-0.34l0.49,0.18l-0.1,-0.26l1,-0.45l-0.18,-1.09l-0.47,-0.46l0.28,-0.27l1.67,-0.29l3.06,-1.64l-0.89,-1.02l-3.63,-1.36l0,0l1.51,-1.48l0,0l0.45,-0.51l1.9,-0.27l6.1,1.58l1,-0.22l0.02,0.26l0.65,0.06l0.23,-1.2L532.55,168.03z"/>
	</g>
</svg>