<?xml version="1.0" encoding="utf-8"?>
<svg xmlns="http://www.w3.org/2000/svg" xmlns:amcharts="http://amcharts.com/ammap" xmlns:xlink="http://www.w3.org/1999/xlink" version="1.1" viewBox="317.38 251.17999999999998 121.38 89.33000000000007" >

    <g>
        <path id="UA-65" title="Kherson" fill="black" d="M425.95,330.31l1.46,-0.21l-0.23,1.26l-1.14,-0.33l-1.49,-1.55l0.71,0.12L425.95,330.31zM352.8,326.85l3.38,0.6l3.46,1.12l1.69,-0.33l1.8,-1.11l1.22,1.01l0.96,0.16l0.42,-0.49l1.16,0.83l1.97,0.17l0.92,0.55l-1.26,0.36l-5.22,-0.39l-10.91,-2.42L352.8,326.85zM417.35,324.09l-0.59,0.41l-0.2,0.7l-1.16,0.62l0.14,1.36h-0.25l-0.4,-1.76l1.32,-1.28L417.35,324.09zM429.44,323.42l1.27,8.04l3.21,8.76l0,0l-0.55,0.29l0,0l-0.77,-2.6l-0.75,-1.02l-0.6,0.13l-0.31,1.09l-0.67,0.65l-0.78,0.11l-0.27,-0.66l0.7,-1.65l0.41,-2.96l-0.44,-0.53l-0.02,-0.87l1.11,1.11l-0.86,-2.19l-0.65,-0.27l0.17,-1.04l-0.39,0.04l-0.31,-1.64l-0.62,-0.65l-0.63,0.09l-0.54,2.01l-0.74,-1.47l-0.98,-0.52l0.35,-0.83l-0.28,-0.71l-1.3,-0.52l-0.01,-0.48l1.71,0.3l1.34,-0.5l0.54,1.48l0.37,0.15l0.62,-0.89l-0.3,-2.24l0.68,-0.58L429.44,323.42zM321.2,318.19l1.62,-0.22l0.2,0.25l-0.69,0.21l-0.1,0.35l10.09,2.49l-8.71,-1.94l-3.38,-1.27l-1.78,-1.47l-0.94,-1.64l-0.13,-1.88l0.41,-0.84l0.32,0.07l-0.05,2.51l0.36,1.28l0.85,1.11L321.2,318.19zM370.78,252.26l2.61,0.62l2.16,-0.51l0.12,0.88l-0.62,0.63l-0.12,0.73l0.94,0.07l1.2,-0.73l0.25,0.18l-0.09,1.42l0.97,0.54l0.06,0.99l1.27,-0.54l-0.72,-0.89l-0.07,-0.62l5.37,-1.02l-0.3,-2.14l3.42,-0.69l0.52,1.26l0.52,0.12l-0.11,0.65l-0.51,0.18l-0.02,2.65l1.51,-0.51l0.29,1.43l9.73,-1.56l1.37,2.09l0.93,0.78l4.79,-0.96l0,0l2.89,1.51l0.58,0.64l0.62,3.64l0.45,-0.02l0.67,4.02l0.45,0.37l0.77,-0.79l0.97,-0.13l0.57,0.47l0.91,-0.19l-0.1,-0.52l0.68,-0.14l-0.13,-1.13l3.42,-0.67l-0.15,0.82l-1.09,0.33l0.34,1.66l0.96,-0.15l0.27,0.79l0.12,0.81l-1.31,0.24l0.98,7l1.11,-0.1l0.48,4.17l0.76,-0.1l0.31,1.51l0.65,0.03l0.12,0.98l2.08,-0.26l0.13,1.04l1.65,-0.26l0.58,4.06l1.73,-0.15l0.41,2.67l-2.04,0.31l0.27,2.12l-0.5,0.02l-0.01,1.06l-0.47,0.03l0.01,0.44l-2.67,0.37l0.06,0.65l-1.11,0.16l0.27,1.82l1.6,-0.18l0.1,0.66l2.11,-0.27l0.32,2.81l-1.44,0.41l0.31,1.77l0.89,-0.03l0.27,1.55l4.53,-0.72l0.18,1.33l-0.46,0.13l0.31,1.5l1.8,-0.27l2.59,1.6l1.13,-0.15l0.61,8.94l0.97,-0.09l0,0l-0.86,1.1l-1.39,0.86l-4.7,1l-2.14,1.75l-0.69,2.1l-1.29,0.06l-0.51,-0.66l-0.94,0.26l-1.58,-0.76l-1.92,0.52l-0.2,1.18l0.73,2.61l-1.25,3.13l-0.65,1.08l-1.44,1.32l-0.3,-0.56l-0.46,-0.21l-0.33,0.24l-0.54,0.49l-0.51,1.39l-0.33,-1.63l0.3,-0.66l-0.47,-0.45l-1.67,-0.42l0.06,-0.6l0.53,-0.78l1.54,0.24v-0.31l-1.17,-0.21l-0.3,-1.61l0.77,-0.6l0.49,-0.94l-0.16,-0.4l0.4,0.06l0.36,1.71l0.42,-1.38l1.41,-0.57l0.69,1.28l-0.04,0.27l-0.45,-0.08l0.05,0.44l0.57,0.21l0.63,-1.43l0.07,-2.41l-0.8,-0.5l-0.75,-1.07l-0.47,0.03l-0.36,0.51l0,0.72l0.56,1.09l-0.93,0.24l-0.14,0.4l-0.97,-0.21l-0.8,-0.74l-0.45,0l-0.26,-0.69l-0.4,-0.01l-1.37,-1.42l-0.99,0.25l-0.58,-0.9l0.07,-0.96l-0.57,-1.23l-0.54,-0.14l0.52,1.45l-0.49,1.76l0.41,1.25l0.65,-0.24l0.26,0.39l-0.65,1.11l-0.15,1.7l-0.69,0.17l-0.11,-2.63l-1.16,-1.32l-0.79,-2.3l-0.75,-0.62l-0.44,-1.17l-0.97,-1.11l-0.5,0.03l-0.49,1.39l-0.8,-0.7l-0.43,0.5l1.48,0.43l1.02,3.11l0.96,0.87l-0.15,0.61l-1.48,1.16l-0.35,-0.43l0.64,-1.58l-0.5,-1.36l-0.62,-0.19l-0.43,1.4l-0.87,0.29l0.14,0.24l0.69,-0.33l0.47,0.42l0.31,0.59l-0.13,0.71l0.8,0.55l-0.49,0.96l-0.49,-0.95l-0.54,-0.33l-0.65,0.84l-0.48,-0.07l-0.06,-1.03l-0.73,-0.68l-0.7,1.08l0.03,0.92l-2.35,-4.26l-0.99,-0.78l-0.8,-0.21l-0.95,0.34l-0.52,-0.81l-0.38,0.52l-1,0.17l-2.12,-1.69l-0.29,0.65l-1.46,0.04l-0.21,0.69l0.75,1.35l-0.67,0.13l-0.91,-0.47l-0.54,-0.45l-0.1,-0.56l-0.36,0.17l-0.84,-0.82l0.15,0.59l0,0l-0.98,0.17l0.73,4.23l-0.7,0.25l0,0l-0.27,-0.71l-0.86,-0.45l-0.65,1.08l-0.53,0l-0.3,0.88l-0.46,0.12l-0.45,-0.34l0.17,1.17l1.55,1.13l-1.5,-0.31l-0.66,0.32l-0.17,1.06l0.82,1.16l-0.89,-0.07l-1.03,-0.85l-1.12,0.41l-0.12,0.52l-2.96,-3.99l-0.28,-0.11l-0.48,0.45l-0.19,1.4l-0.85,-0.14l-0.07,-0.65l0.63,0l0.29,-1.41l-0.79,-0.59l-1.01,-0.29l-1.23,0.33l-0.3,0.19l-0.01,1.14l-0.32,-0.18l0.15,-1.24l0.75,-0.94l-0.71,-1.03l0.65,-2.09l-0.75,1.32l-0.55,-0.17l0.28,0.71l-0.43,1.16l-1.84,1.52l-1.59,-0.59l-0.48,-0.86l-1.19,-0.12l-0.33,0.37l0.31,0.51l-0.51,0.75l0.41,0.49l-0.48,0.19l-1.66,-0.09l-0.99,0.31l-2.67,-0.54l-0.92,0.29l-2.06,-0.61l-0.84,0.29l-0.18,0.41l-2.08,0.45l-0.81,-0.37l-1.67,0.38l-1.98,0.95l-0.18,0.46l0.26,0.2l-1.73,-0.4l-9.89,-3.09l0.76,0.14l0.41,-0.62l-0.3,-1.04l0.13,-0.24l0.15,0.34l0.3,-0.12l-0.28,-0.73l-1.08,-0.32l-0.47,0.43l0.4,0.31l-0.37,-0.04l-1.3,-1.36l-0.88,0.01l-1.31,-0.98l-0.47,-1.29l-0.92,-0.4l-0.46,0.44l-2.1,-0.36l-0.68,-0.67l-0.37,-1.03l-1.51,-0.33l-0.65,1.36l-2.99,-0.15l-0.36,0.38l-0.16,-1.41l-0.6,-0.12l0.2,-0.56l0.91,-0.72l1.42,-0.56l3.02,-0.08l1.34,-0.41l1.43,-0.69l0.51,-0.92l0.89,-0.05l0.57,-0.47l-1.06,-2.53l-0.56,-0.6l-0.47,-0.11l-0.88,0.7l-0.68,0.03l-4.98,-1.94l0,0l0.54,-0.92l0.8,-0.04l0.38,-0.89l0,0l0.69,0.27l0.85,-0.34l0.19,0.38l2.62,0.95l2.07,0.11l1.07,-0.41l1.64,-0.04l2.55,0.93l2.07,0.11l2.77,0.71l2,-0.41l0.74,-0.7l0.09,-0.42l-0.79,-0.12l-1.27,0.26l-0.88,0.48l-0.08,0.37h-0.6l-1.17,-0.77l0.75,-0.23l-0.05,-0.35l-1.05,-0.2l1.24,-0.08l-0.6,-0.25l-0.17,-0.63l0.52,-0.5l-0.55,-0.46l0.47,-0.09l0.04,-0.98l-0.32,-0.4l-1.66,-0.85l-3.66,1.64l-1.2,-2.69l-1.66,-0.11l-2.36,-1.99l0,0l0.17,-0.47l1.42,-0.08l-0.39,-0.55l2.27,-0.37l-0.32,-2.19l-0.45,0.07l-0.18,-0.81l1.65,-0.41l0.31,0.27l1.71,-0.29l0.19,-0.54l1.62,-0.36l-0.21,-1.72l1.24,-0.63l-0.83,-1.44l4.17,2.65l0.91,-0.09l-0.25,-1.72l3.28,-0.54l0.23,1.22l2.09,-0.27l-0.21,-1.25l0.44,-0.1l-0.27,-1.57l0.37,-0.05l0.09,0.62l0.93,-0.15l0.41,0.91l3.57,-0.26l0.26,1.95l2.02,-0.32l0.36,0.33l0.14,-0.52l1.35,-0.16l0.04,-0.37l4.59,-0.83l-0.09,-0.56l-0.86,0.15l-0.16,-0.86l-2.09,0.36l-0.43,-0.19l-0.1,-0.87l3,-0.68l-0.12,-0.8l1.95,-0.25l-0.15,-0.77l-0.92,0.1l-0.63,-2.03l0.68,-0.61l2.43,1.34l1.54,-2.41l-4.59,-2.81l-0.84,-2.32l1.39,-1.92l0.29,-1.26l1.52,0l0.07,-0.32l0.38,0.79l0.73,0.12l-0.05,-0.45l0.99,-0.63l0.02,-0.97l1.09,-0.16l0.51,0.87l0.56,0.09l0.45,-0.3l-0.44,-0.39l0.05,-0.77l1.65,-0.25l-1.43,-1.63l-0.68,-0.55l-0.45,0.02l-0.06,-2.06l1.09,-0.49l-0.42,-2.77l-2.82,0.45l-0.17,-0.38l-0.14,-2.94l0.75,-0.24l-0.03,-0.91l0.53,-0.21l0.14,3.02l2.23,-0.34l-0.44,-4.35l0.76,-0.41l-0.16,-1.13l-0.14,-0.3l-1.52,0.92L370.78,252.26z"/>
	</g>
</svg>