<?xml version="1.0" encoding="utf-8"?>
<svg xmlns="http://www.w3.org/2000/svg" xmlns:amcharts="http://amcharts.com/ammap" xmlns:xlink="http://www.w3.org/1999/xlink" version="1.1" viewBox="273.96 97.05 19.980000000000018 20.260000000000005" >

    <g>
        <path id="UA-30" title="Kyiv" fill="black" d="M291.42,101.4L291.23,102.81L291.62,103.32L291.62,104.23L293.29,105.74L293.48,107.55L292.13,109.37L290.2,110.27L288.65,109.27L287.81,109.37L287.49,109.77L287.36,111.28L287.75,111.58L287.88,112.79L287.36,113.69L287.36,114.7L287.75,116.31L286.85,117.31L285.82,116.91L284.85,115.4L284.08,113.19L283.75,110.68L282.72,110.78L281.82,109.97L281.24,109.87L280.4,107.35L279.37,107.35L278.86,106.95L278.41,104.93L277.12,104.73L275.83,105.13L275.19,105.54L274.93,106.24L274.22,106.34L273.96,105.44L275.06,102.71L275.06,101.7L275.57,100.89L276.6,99.88L277.5,100.08L277.83,99.48L277.57,98.87L276.22,97.96L276.15,97.45L276.47,97.25L279.18,97.05L281.56,97.45L284.59,100.69L286.14,99.78L289.04,99.78L289.68,99.27L290.33,97.96L291.49,97.55L293.36,98.16L293.94,98.77L293.94,100.18L293.29,100.59L292.58,100.39L291.74,100.79z"/>
	</g>
</svg>