<?xml version="1.0" encoding="utf-8"?>
<svg xmlns="http://www.w3.org/2000/svg" xmlns:amcharts="http://amcharts.com/ammap" xmlns:xlink="http://www.w3.org/1999/xlink" version="1.1" viewBox="531.48 123.61 80.48000000000002 116.27999999999999" >

    <g>
        <path id="UA-09" title="Luhansk" fill="black" d="M548.14,124.39L548.93,126.92L548.83,127.88L551,129.1L551.55,128.21L552.78,128.45L552.71,129.07L553.14,129.11L553.47,130.04L554.77,130.45L556.7,129.42L557.81,129.65L558.83,130.56L559.94,129.63L559.9,128.26L560.21,128.26L561.03,129.27L560.17,130.24L560.38,131.71L561.4,132.12L562.18,133.59L562.99,133.71L563.62,134.58L564.74,134.57L565.72,135.34L567.41,135.08L568.04,135.66L567.62,136.19L567.89,137.11L567.66,137.31L568.48,138.89L569.09,138.92L571.59,137.46L573.03,137.78L574.44,136.74L575.3,135.33L576.88,134.01L578.4,136.56L578.54,138.32L579.23,139.73L580.43,140.91L583.55,141.81L585.85,140.72L587.28,140.95L589.06,141.91L591.33,142.14L590.98,143.44L593,148.34L596.07,149.28L598.01,151.32L600.91,151.17L602.04,150.76L603.13,149.29L606.27,148.91L606.87,149.23L609.25,148.35L609.29,149.38L610.3,150.76L606.06,153.27L605.73,156.2L607.32,159.04L609.4,160.51L611.07,162.31L610.58,165.08L611.96,166.5L611.84,167.6L611.32,167.88L609.23,167.87L607.19,170.58L605.65,170.99L602.62,175.88L602.53,177.33L600.54,176.98L598.13,177.09L596.83,178.14L594.23,177.55L593.55,178.11L593.93,178.41L593.29,180.23L593.7,180.7L594.37,180.18L595.16,180.79L596.2,180.87L596.4,181.89L597.48,183.31L596.98,184.06L597.62,184.75L597.89,184.54L598.48,184.99L598.81,186.1L599.41,185.33L599.69,185.81L601.94,185.54L603.08,186.7L604.38,186.96L604.78,185.25L605.8,184.44L606.59,184.89L607.25,186.85L603.86,190.83L597.87,188.36L597.61,188.63L597.78,189.19L597.4,189.22L597.17,189.87L597.28,190.87L596.72,191.58L596.77,192.22L595.75,192.26L595.76,193.37L595.33,193.55L595.28,194.24L594.63,194.53L594.88,194.89L594.6,195.28L595.09,195.42L595.21,196.38L594.54,197.13L594.85,197.29L594.82,197.85L594.21,198.15L594.3,198.68L593.16,200.17L594.09,201.35L596.02,201.13L596.26,201.53L597.61,201.01L598.14,201.43L598.7,201.38L598.61,201.72L599.53,202.2L600.11,205.24L599.43,205.65L599.46,207.13L601.15,208.38L600.92,208.97L601.58,209.7L601.45,210.56L601.84,210.87L601.45,211.24L602.01,212.04L602.62,211.46L602.41,212.31L602.79,213.28L600.89,214.16L599.55,214.18L599.28,215.39L600.66,215.43L600.94,216L601.28,215.86L601.74,216.46L601.54,217.03L601.85,217.36L603.03,215.73L603.58,215.91L603.36,215.75L603.73,215.19L604.18,215.04L605.34,218.24L604.92,218.81L604.93,219.73L602.67,219.53L602.48,221.93L601.56,222.05L601.25,223.91L600.29,225.17L600.13,227.03L599.08,227.64L600.67,228.59L600.7,229.03L597.04,229.09L597.67,230.51L598.38,231.02L598.13,231.72L598.49,232.02L598.49,233.46L598.06,233.58L597.61,235.02L597.62,237.46L596.57,237.69L596.58,238.77L595.69,239.82L591.84,239.22L589.88,239.32L589.21,239.89L588.76,239.54L588.26,239.8L586.87,238.07L585.71,238.41L585.35,239.28L584.75,239.61L583.8,237.56L578.9,237.76L578.65,238.43L575.8,238.62L575.69,239.04L573.63,238.55L573.63,237.61L573.26,237.6L573.26,237.6L572.96,236.47L573.88,234.12L573.24,233.55L572.69,233.69L572.11,233.23L572.1,230.82L565.27,230.35L564.49,228.75L565.03,227.85L564.99,227.04L564.29,226.64L564.67,225.18L560.33,223.72L560.42,223.09L558.49,223.05L557.48,222.51L557.15,221.88L557.59,221.47L557.66,220.82L556.88,219.61L556.9,218.24L555.67,217.06L552.63,217.42L551.21,216.67L551.28,215.57L551.72,215.06L551.58,213.97L553.57,212.72L552.67,211.89L552.03,212.08L551.51,208.53L549.79,209.34L549.5,208.72L548.54,208.93L547.48,208.08L547.69,207.56L546.82,206.96L547.18,206.95L547.03,206.12L547.63,205.2L546.2,203.51L545.73,197.24L546.57,196.96L546.64,196.51L547.58,196.29L547.58,195.33L547.23,194.82L547.94,194.55L547.69,193.83L546.59,193.71L545.8,192.88L546.49,191.73L546.32,190.35L546.68,189.85L547.55,189.77L547.5,189.1L546.15,189.21L545.6,188.27L544.46,188.39L544.5,183.65L543.87,183.89L541.75,183.58L541.38,184L540.68,183.96L539.78,183.51L538.34,183.54L538.2,183.08L537.09,183.04L537.88,181.56L538.7,182.01L538.69,180.97L540.25,180.45L538.65,177.19L538.94,176.87L539.59,172.65L538.42,172.44L538.17,173.68L536.33,173.59L533.84,172.5L533.32,172.02L533.63,171.7L533.3,171.28L534.73,170.37L533.79,169.25L533.18,169.38L532.55,168.03L532.55,168.03L532.38,167.56L533.93,166.84L533.52,166.3L535.49,165.55L535.15,164.61L532.99,164.14L532.8,163.22L533.45,159.3L532.79,158.56L532.81,157.11L531.71,157.12L531.91,155.01L531.48,154.61L531.86,153.21L533.08,153.3L534.35,152.34L534.49,151.88L533.07,151.67L533.57,150.54L535.25,150.68L534.88,149.45L535.06,148.57L536.05,148.5L536.15,147.92L536.85,147.7L536.39,146.69L538.46,146.12L537.86,145.85L537.39,144.19L536.98,143.89L537.53,143.6L537.41,143.19L536.63,143.1L536.1,143.44L535.33,142.27L536.13,140.42L536.87,141.16L538.12,139.59L538.75,139.49L538.76,139.1L537.27,138.04L537.64,136.79L539.41,136.78L540.02,136.2L538.02,133.44L538.02,133.44L538.82,132.24L541.09,131.31L541.2,132.36L542.7,131.32L542.46,130.74L543.5,130.24L543.52,129.84L544.27,129.35L543.24,127.11L542.96,124.02L546.09,124.43L547.52,123.61L548.08,123.79z"/>
	</g>
</svg>