<?xml version="1.0" encoding="utf-8"?>
<svg xmlns="http://www.w3.org/2000/svg" xmlns:amcharts="http://amcharts.com/ammap" xmlns:xlink="http://www.w3.org/1999/xlink" version="1.1" viewBox="336.87 98.98 114.95999999999998 95.39" >

    <g>
        <path id="UA-53" title="Poltava" fill="black" d="M369.99,100.72L371.16,100.88L371.66,101.49L373.53,100.53L374.14,101.31L375.14,101.57L375.7,101.27L375.84,99.73L377.06,98.98L377.82,99.92L378.36,100.08L378.48,100.67L380.32,100.71L380.42,101.9L381.61,101.85L381.88,102.71L382.35,103.07L382.38,102.59L383.33,102.22L383.83,102.38L384.02,103L384.61,101.96L385.41,102.85L385.91,102.35L387.03,102.07L391.9,103.43L392.67,104.01L393.35,103.96L394.49,103L396.26,102.3L396.45,101.9L396.17,101.52L395.28,101.41L395.13,100.98L397.24,100.08L397.86,100.08L398.68,100.98L399.97,99.32L402.52,101.25L402.39,101.87L403.66,101L405.02,101.54L404.42,102.36L404.88,102.8L405.52,102.26L405.58,101.31L407.38,100.44L408.36,100.6L408.96,99.99L409.93,100.81L410.3,105.27L414.62,108.84L414.33,109.3L415.39,110.4L415.04,111.44L415.46,111.87L416.73,112.98L418.81,113.26L419.06,115.24L419.43,115.51L419.51,115.11L420.17,115.26L420.89,116.27L420.48,117.3L419.22,118.7L419.72,119.24L419.48,120.05L420.02,121.2L420.93,121.88L421.48,121.53L422.89,122.35L423.59,122.01L423.89,122.4L424.38,121.82L424.67,122L424.54,122.33L425.25,122.38L425.26,120.42L426.37,119.74L426.9,119.97L426.66,120.58L428.6,120.1L428.72,119.81L429.85,119.89L430.24,119.54L433.39,120.17L433.39,120.17L433.05,121.26L433.15,122.79L434.14,124.14L430.55,128.88L431.47,131.48L431.79,131.79L432.49,131.6L433.4,133.43L434.36,134.22L434.95,134.1L435.69,134.94L436.48,134.2L437.22,134.22L437.71,135.62L439.58,135.92L440.23,135.64L442.72,137.1L442.89,138.44L442.2,138.7L442.53,139.51L442.47,141.36L443.06,142.01L443.98,142.12L444.08,142.88L443.58,143.2L444.03,143.42L443.59,144.22L444.45,144.7L446.6,144.94L447.31,145.76L450.04,145.35L449.76,146.1L450.44,147.01L451.83,150.58L449.31,151.13L449.09,151.52L449.86,151.69L449.9,152.95L451.79,153.62L451.68,155.16L446.74,154.21L446.06,156.6L447.63,157.14L447.19,159.37L448.1,159.75L444.9,163.76L445.17,165.03L444.76,165.96L443.36,165.11L443.75,164.8L443.51,164.61L440.68,164.94L439.74,164.57L438.44,164.65L437.9,163.8L436.61,163.15L436.21,163.46L434.74,167.38L435.99,172.47L435.99,172.47L435.72,172.6L435.71,172.04L433.7,170.22L432.97,170.75L432.56,172.08L431.92,172.49L430.82,171.89L430.92,171.52L431.65,171.59L431.96,171.11L430.76,170.74L430.61,170.41L429.34,170.6L429.5,170.98L429.04,171.36L428.12,170.95L427.44,171.29L427.42,172.82L426.6,172.68L425.47,173.4L424.94,173.26L424.42,173.98L423.96,174.07L423.55,173.56L422.77,173.77L422.19,174.43L421.53,174.38L421.58,175.35L421.01,175.17L420.65,175.92L420.9,176.91L420.17,177.29L418.97,176.49L418.33,176.97L417.6,176.41L417.2,176.75L415.15,175.27L415.62,177.33L413.86,178.44L413.49,179.36L412.6,180.16L413.49,181.02L412.15,183.1L411.76,185.42L412.02,186.05L412.93,186.71L412.9,187.52L413.32,187.58L413.3,188.12L412.52,188.2L412.47,188.73L413.25,189.19L411.49,189.34L411.61,191.15L412.49,190.8L413,191.18L412.05,192.12L412.22,193.19L411.5,194.37L411.55,193.6L411.22,193.34L410.04,193.32L409.34,192.63L408.29,192.34L407.47,191.5L406.79,191.69L405.97,191.35L405.63,190.79L405.82,189.67L405.6,189.26L403.85,189.05L402.74,188.21L402.17,187.08L400.99,187.1L399.16,186.35L397.91,185.17L397.91,185.17L395.26,183.37L393.39,182.95L391.82,183.23L390.81,182.38L390.16,181.25L389.22,181.5L389.14,182.11L387.97,183.11L388.37,183.33L387.76,184.26L386.82,184.37L387.03,184.69L386.21,184.65L385.84,183.72L383.71,184.49L383.81,182.63L383.58,182.57L382.28,182.41L382.05,182.7L382.03,182.38L381.43,182.39L381.24,183.87L379.57,182.57L378.48,182.74L378.29,182.36L378.8,182.17L377.8,179.99L378.87,178.83L378.36,177.71L378.52,176.97L377.91,176.45L378.03,176.12L377.19,175.95L376.63,175.44L377.44,175.16L377.87,174.06L376.96,173.22L376.65,173.36L376.55,172.57L375.89,171.76L375.66,171.8L375.97,172.84L375.99,176.2L374.48,176.32L373.95,175.78L373.08,175.94L372.95,174.27L372.57,173.67L372.86,172.99L371.42,170.73L368.84,170.62L368.21,169.79L367.45,169.7L367.11,169.17L367.24,168.01L366.76,167.57L365.29,168.21L363.94,168.06L362.8,167.51L362.8,167.51L361.44,167.37L359.64,168.29L359.01,167.34L358.1,166.96L356.01,167.44L355.15,166.76L354.52,167.17L353.83,165.91L352.91,165.55L352.37,164.85L350.99,164.4L349.64,163.27L350.04,162.61L349.55,162.58L349.47,162.28L350.03,161.76L351.06,159.17L352.14,160.52L354.03,160.74L356,161.86L358.9,161.95L358.81,160.86L358.04,160.26L357.28,160.29L356.82,159.48L356.95,158.21L355.96,157.55L356.68,156.96L356.77,154.36L357.92,154.32L359.25,152.99L359.2,150.57L359.46,150.3L357.48,148.87L358.01,148.31L357.5,146.64L357.86,145.99L357.01,145.79L356.31,144.82L353.32,143.75L353.28,141.16L352.7,140.17L351.36,139.98L350.92,138.35L349.13,138.82L348.66,137.44L346.56,134.74L347.13,134.21L347.52,134.7L348.62,134.02L347.93,133.22L348.09,132.06L348.43,131.92L348.03,131.56L348.32,130.26L346.74,129.23L346.25,126.48L345.57,126.37L345.68,125.68L345.08,125.2L344.74,126.16L344.38,126.21L342.52,123.89L343.04,123.08L342.36,122.36L344.12,121.94L343.93,120.66L339.77,119.45L339.31,118.35L337.62,117.01L338.04,116.39L337.77,116.17L337.77,116.17L337.77,116.17L337.77,116.17L336.87,115.15L337.39,113.38L337.19,113.15L338.61,112.2L338.24,111.61L338.97,110.56L338.73,109.95L338.73,109.95L341.18,109.4L341.53,109.81L341.87,109.52L342.4,109.92L342.77,109.11L342.42,108.53L343.67,108.18L343.79,107.32L344.78,106.87L344.53,106.23L344.78,105.81L346.25,105.67L346.4,106.37L347.18,106.76L347.44,106.52L348.86,107.2L350.48,107.17L350.27,108.73L351.6,110.04L352.85,109.28L355.19,109.45L355.3,108.85L356.62,108.67L356.57,109.36L358.86,109.36L358.98,109.64L359.2,109.28L359.68,109.81L359.89,109.56L360.6,109.9L360.92,109.45L360.46,109.16L360.58,108.68L362.17,108.52L364.86,106.68L364.74,105.87L365.69,105.56L365.43,105.2L365.9,104.77L366.39,104.85L366.6,104L366.97,103.85L366.78,103.2L368.14,103.25L368.5,101.7L369.15,101.63z"/>
	</g>
</svg>