<?xml version="1.0" encoding="utf-8"?>
<svg xmlns="http://www.w3.org/2000/svg" xmlns:amcharts="http://amcharts.com/ammap" xmlns:xlink="http://www.w3.org/1999/xlink" version="1.1" viewBox="87.29 114.16 58.45 91.25" >

    <g>
        <path id="UA-61" title="Ternopil" fill="black" d="M108.7,127.97L109.21,125.78L111.47,125.4L111.71,124.41L112.33,123.85L112.21,123.21L113.43,122.81L113.29,122.18L112.34,122L112.11,121.49L112.05,120.29L113,119.48L113.89,119.59L113.86,120.03L115.68,120.35L116.42,119.03L118.17,120.21L120.12,118.83L121.34,119.06L121.54,118.36L122.8,118.78L123.85,118.43L124.69,118.63L125.91,118.15L126.57,116.63L128.39,114.65L129.35,114.64L129.81,115.22L130.88,115.59L131.11,116.06L132.84,114.68L136.26,116.12L137.3,114.26L138.25,114.16L138.09,116.06L137.02,116L137.24,116.76L136.83,117.75L138.2,118.68L138.2,118.68L137.91,118.98L138.13,119.82L137.82,120.11L138.28,120.68L138.97,120.65L138.68,121.25L140,122.26L140,122.84L137.54,123.01L137.57,124.56L138.25,125.03L138.41,125.77L138.1,125.77L138.08,126.27L137.44,126.3L136.73,126.89L137.87,127.32L137.52,128.57L136.45,128.48L136.41,128.95L135.74,129.47L135.63,130.49L136.28,132.37L135.23,133.22L135.23,133.63L136.11,134.07L136.17,134.41L137.54,135.12L136.74,136.23L138.02,138.15L138.33,139.66L138.82,139.97L139.01,141.49L137.96,142.1L137.2,143.33L138.87,144.41L139.9,145.58L140.01,146.21L139.49,146.44L139.46,147.24L138.62,147.18L138.4,147.84L137.51,148.62L137.99,149.73L137.76,150.15L138.14,151.63L137.63,151.81L137.4,151.28L136.7,151.71L135.57,153.73L137.23,155.32L137.32,157.95L138.64,159.5L138.21,160.67L138.97,161.13L138.61,161.65L138.96,162.31L138.41,162.23L138.4,163.34L139.16,164.07L139.13,164.8L139.55,165.26L139.19,165.42L139.39,165.95L138.94,165.86L139.45,166.6L138.96,167.07L138.99,167.6L137.61,167.58L137.57,168.73L137.16,168.82L137.32,169.25L136.97,170.02L137.31,170.79L137.15,171.3L137.87,171.83L137.15,171.94L137.63,173.3L137.37,173.57L137.61,175.09L137.22,176.28L138.01,176.48L137,177.39L137.77,178.41L137.45,178.99L138.02,179.83L137.82,180.19L137.23,179.99L136.77,180.34L136.97,180.75L137.93,180.99L136.74,181.56L137.76,182.52L137.29,183.49L137.39,184.34L136.98,184.34L137.37,185.07L137.9,184.66L138.28,184.79L137.69,185.46L137.98,186.34L137.6,187.55L138.11,187.82L138.69,189.42L139.49,189.56L139.14,190L138.39,189.75L138.71,190.93L138.03,190.33L137.78,190.56L138.04,191.45L138.74,191.63L138.53,192.4L139.04,192.79L138.95,193.03L138.3,192.85L139,193.66L138.56,195.07L138.88,195.65L138.28,196.19L138.44,196.5L139.06,196.4L139.1,197.19L140.08,197.12L139.92,198.28L141.19,197.9L140.54,198.74L141.52,198.86L141.67,199.19L140.66,199.55L141.72,200.15L142.35,201.45L142.88,201.37L142.14,202.3L143.1,202.83L142.93,203.62L143.33,203.61L143.7,202.55L144.59,203.69L145.48,203.4L145.74,203.87L145.74,203.87L144,204.01L142.69,205.41L141.76,204.96L140.95,205.35L139.82,203.77L137.41,204.52L136.43,204.36L135.72,203.34L135.61,200.72L134.7,199.68L134.15,200.01L133.98,200.74L134.98,202.38L135.04,203.12L133.95,203.88L132.25,201.51L132.99,200.37L132.78,198.63L132.47,198.28L131.81,198.52L131.46,200.17L129.91,199.58L128.54,201.09L127.66,201.34L126.54,200.68L125.7,200.81L125.85,199.54L124.13,197.22L123.48,196.84L123.09,196.85L122.55,197.47L121.81,199L121.02,197.5L118.17,196.94L118.17,196.94L117.88,196.56L118.91,195.67L118.95,195.17L117.63,194.65L117.51,194.2L118.41,193.51L118.55,193.03L117.16,192.16L115.32,190.28L113.99,190.11L112.28,188.81L112.1,188.38L112.77,187.58L112.22,186.97L111.61,186.71L111.36,186.92L111.73,187.83L111.43,188.21L109.36,187.4L108.57,187.43L108.88,190.06L108.5,190.16L108,189.49L107.54,189.42L106.84,190.16L106.4,191.31L105.48,191.22L104.92,190.32L105.07,189.51L105.75,189.05L107.53,189.03L107.91,188.33L107.64,188.03L106.85,188.14L106.36,187.22L105.2,186.94L104.54,187.98L103.94,187.98L104.63,186.21L104.81,183.68L103.97,184.17L103.3,183.93L103.51,184.61L102.51,185.52L102.61,186.84L102.23,187.11L101.62,186.9L100.89,184.01L101.85,183.01L100.6,182L100.79,180.36L99.96,181.17L97.52,179.64L95.78,180.55L95.81,179.59L93.69,177.42L94.09,175.97L96.61,176.57L96.56,176.08L96.03,175.94L96.34,174.14L95.59,173.74L93.63,173.54L92.14,171.82L92.12,170.96L94.56,168.09L91.69,166.66L91.58,165.79L91.16,165.35L91.07,163.75L92.16,162.13L91.39,161.6L91.05,160.42L90.63,160.12L89.94,160.46L89.4,160.19L88.88,157.58L87.5,154.48L87.5,154.48L87.67,151.81L87.29,150.6L89.86,150.48L90.04,149.81L91.08,149.42L91.48,150.01L91.4,149.11L92.22,149.1L92.59,148.56L93.7,149.12L93.5,148.6L93.86,148.27L94.8,148.58L94.66,148.18L95.25,148.25L95.74,147.22L96.48,146.98L96.87,144.03L97.6,142.02L98.41,142.31L99.17,143.36L100.84,141.65L99.45,140.22L99.96,139.37L99.69,137.28L101.48,137.84L101.94,136.95L102.7,137L102.98,136.68L104.7,137.45L105.26,137.36L105.26,136.82L105.68,136.71L106.64,137.24L107,135.86L109.48,135.21L110.11,133.6L109.59,132.81L109.96,131.73L111.25,131.3L110.51,130.82L110.76,129.84L110.43,129z"/>
	</g>
</svg>