<?xml version="1.0" encoding="utf-8"?>
<svg xmlns="http://www.w3.org/2000/svg" xmlns:amcharts="http://amcharts.com/ammap" xmlns:xlink="http://www.w3.org/1999/xlink" version="1.1" viewBox="177.18 134.02 89.61000000000001 93.76999999999998" >

    <g>
		<path id="UA-05" title="Vinnytsia" fill="black" d="M192.8,141.47L192.79,141.02L193.28,141.23L194.48,140.96L195.04,140.34L196.06,140.27L196.95,139.79L200.85,140.23L202.08,140.14L203.48,139.26L205.77,139.15L206.05,139.39L206.72,138.8L206.78,137.99L207.4,138.61L209.73,139.01L211.22,139.72L212.18,139.2L212.73,137.49L214.31,137.49L214.81,138.26L216.27,137.69L217.72,139.99L218.7,139.59L218.77,138.17L219.48,137.97L221.36,138.46L222.33,138.22L222.88,138.87L223.23,138.79L223.92,136.39L224.95,136.43L225.06,135.99L226.99,135.48L227.45,134.13L227.95,134.02L228.73,134.41L228.66,135.14L230.64,136.52L230.45,137.63L230.9,137.58L231.17,138.47L230.27,139.58L231.06,139.93L231.05,141.02L232.35,141.96L232.04,143.14L230.46,144.99L231.31,145.79L231.63,146.81L232.62,147.33L231.92,148.45L231.95,149.27L232.85,149.59L235.8,149.45L236.33,149.95L237.31,149.54L239.51,149.71L240.47,148.96L240.82,149.63L241.55,149.63L241.7,147.63L243.37,147.68L243.81,148.35L244.3,147.59L245.14,148.02L246.04,146.08L246.68,146.45L246.84,145.97L249.34,146.54L249.34,146.54L250.3,147.22L249.49,148.01L249.22,149.41L250.24,151.32L250.62,153.24L251.56,154.11L252.09,153.99L252.02,154.52L250.79,155.09L250.91,155.7L252.37,156.87L251.18,158.89L249.37,159.77L249.21,160.85L249.83,161.36L249.98,162.85L250.52,163.59L251.65,163.54L253.25,164.46L252.98,165.26L253.12,166.01L253.49,166.06L253,166.64L253.98,167.51L254.76,167.37L255.56,167.96L255.9,167L256.37,166.76L256.66,168.18L257.13,168.44L257.13,168.44L256.81,168.87L256.1,168.71L256.83,169.99L256.4,172.82L256.67,173.39L257.08,173.39L257.12,173.98L255.36,174.5L255.56,175.79L254.34,175.39L253.56,177.56L253.13,176.87L253.13,177.38L252.83,177.5L254,179.66L255.43,179.06L255.46,180L255.8,180.21L254.32,182.48L254.71,182.88L254.33,183.46L255.51,184.75L256,184.47L257.03,185L256.41,185.67L256.77,186.04L257.1,187.6L257.94,188.14L258.27,191.28L261.62,192.37L261.46,192.71L262.23,193.9L261.57,194.02L261.2,194.84L261.61,195.15L261.43,195.57L262.02,195.6L263.4,197L264.28,197.03L264.21,197.84L265.24,198.17L265.35,198.92L265.89,198.95L265.64,200.08L264.44,200.24L264.33,200.97L264.69,201.59L266.27,202.07L266.79,204.83L265.85,204.8L266.32,205.09L266.2,205.98L265,206.28L265.02,207.19L265.02,207.19L264.39,208.35L261.49,209.58L261.69,210.04L258.96,212.38L259.78,213.46L259.5,214.32L258.84,214.47L258.53,215.71L258.13,216.13L257.71,216.03L257.69,216.46L258.47,217.34L258.4,218.15L258.78,218.85L258.44,219.83L258.73,220.53L258.73,220.53L258.45,220.87L256.76,220.85L255.42,221.62L254.52,221.3L255.2,222.77L254.98,224.92L254.52,225.06L254.92,225.31L254.79,225.64L253.89,225.47L253.95,224.86L252.67,224.44L252.49,225.18L252.02,225.42L252.23,225.91L251.71,225.89L251.58,226.16L249.26,225.95L248.48,225.64L248.14,224.88L245.62,225.33L245.25,225.89L245.38,226.3L244.88,226.54L244.74,226.32L244.24,226.61L244.13,226.27L242.86,226.74L241.81,226.61L241.28,226.32L241.03,225.46L239.68,225.89L239.15,225.11L240.29,224.99L240.44,224.63L241.08,224.53L240.77,223.65L240.28,223.99L239.48,223.91L239.13,224.33L238.4,223.95L237.07,224.03L237.56,223.57L237.2,223.24L236.77,223.37L234.62,221.33L234.24,221.47L234.36,221.87L233.86,222.37L234.01,223.54L233.39,224.36L233.61,224.9L233.1,225.23L232.68,223.59L232.11,223.47L231.76,223.8L230.45,223.23L229.84,226.35L227.89,226.98L227.81,227.6L227.12,227.01L227.12,227.01L227.44,226.01L226.89,224.79L226,224.83L225.74,224.41L224.56,224.78L224,224.21L221.8,224.74L221.48,223.73L220.42,223.82L220.35,223.48L219.13,223.12L218.43,222.32L218.03,222.6L217.61,222.25L216.28,223.36L215.5,223.48L216,224.14L215.41,224.64L215.23,225.54L215.1,227.27L215.36,227.79L214.17,227.41L212.71,224.94L213.35,223.87L212.94,222.44L211.37,222.33L210.34,224.25L209.35,224.45L208.83,224.09L208.9,222.97L210.27,222.07L210.89,220.92L210.91,219.6L210.38,218.66L209.34,219.36L208.68,218.96L205.43,220.8L204.77,220.3L204.76,218.45L203.99,217.97L203.3,217.93L203,218.76L202.15,219.41L201.51,219.33L201.14,218.52L201.6,216.21L201.09,215.21L200.28,214.77L196.76,214.42L194.85,212.85L194.05,210.62L192.34,209.88L191.12,208.48L189.68,207.94L187.58,208.79L186.26,208.69L184.55,207.71L185.01,206.54L184.73,206.18L182.6,207.3L182.6,207.3L181.44,206.66L180.77,205.39L180.87,203.72L179.87,200.71L177.18,199.15L177.18,199.15L177.75,196.88L178.61,195.73L178.06,194.18L178.46,193.5L177.76,192.69L177.73,192.18L178.4,192.1L178.32,191.74L179.04,190.67L178.49,189.82L178.7,189.02L178.7,189.02L178.7,188.44L178.7,188.44L178.67,186.29L177.84,185.01L177.92,183.24L178.66,182.52L178.69,181.68L177.91,180.69L178.11,180.13L177.48,179.73L179.43,176.61L181.5,176.52L180.84,175.61L181.57,174.73L181.29,173.86L181.77,173.45L182.75,173.88L182.66,172.93L184.16,173.92L184.86,173.23L184.73,172.1L185.99,171.88L186.27,171.54L188.21,172.98L188.8,172.58L189.62,172.94L190.25,172.3L190.15,171.93L190.98,171.35L190.93,170.09L191.42,171.06L192.18,170.45L192.33,170.89L192.79,170.82L193.51,171.33L194.48,171.05L194.98,170.54L194.77,169.36L194.55,169.08L193.93,169.15L193.57,167.97L194.17,167.46L193.33,166.49L193.78,165.8L193.82,164.86L193.44,164.17L193.67,163.3L193.1,162.15L192.15,161.79L192.1,161.21L192.64,161.11L192.63,160.68L192.1,160.59L192.04,160.17L192.77,159.87L193.34,158.02L192.56,158.32L191.83,157.5L191.41,157.67L190.51,157.25L189.96,157.49L189.96,157.49L189.75,156.85L190.16,156.28L190.16,156.28L190.43,155.53L190.89,155.56L191.1,155.04L189.53,154.6L189.54,152.86L190.11,152.54L190.75,153.34L191.35,152.79L191.45,151.49L190.22,150.33L190.71,149.37L191.29,149.1L191.57,148.19L191.97,148.44L192.04,147.86L192.01,146.85L190.52,145.75L190.41,144.08L192,143.86L191.84,143.45L192.87,142.39z"/>
	</g>
</svg>