<?xml version="1.0" encoding="utf-8"?>
<svg xmlns="http://www.w3.org/2000/svg" xmlns:amcharts="http://amcharts.com/ammap" xmlns:xlink="http://www.w3.org/1999/xlink" version="1.1" viewBox="49.72 22.63 84.58000000000001 90.45" >

    <g>
		<path id="UA-07" title="Volyn" fill="black" d="M104.57,23.12L105.74,22.7L108.32,24.46L110.55,24.91L110.84,25.32L113.02,25.32L113.39,24.74L114.23,25.21L114.83,24.23L116.9,25.03L116.9,25.03L117.09,25.55L118.26,26.33L119.59,26.26L120.77,26.69L120.35,27.37L119.34,27.99L118.53,29.38L119,30.62L118.54,30.94L118.3,31.77L119.29,32.86L118.94,33.69L119.28,33.85L119.7,33.48L120.04,34.37L119.39,35.72L119.48,36.34L118.96,36.85L118.61,38.41L117.38,40.53L116.8,40.35L116.41,41.43L116.04,41.34L116.15,40.97L114.89,41.08L114.89,41.92L115.62,41.48L115.92,42.55L116.57,42.47L117.29,43.65L117.05,44.86L116.46,45.16L116.08,46.04L117,46.46L117.01,46.95L115.52,47.52L115.64,48.09L117.38,47.9L117.22,48.58L117.98,48.6L117.85,49.24L118.6,49.2L118.59,52.24L120.07,53.35L120.3,54.06L120.61,54.03L120.55,54.89L120.91,54.53L121.46,54.71L121.12,54.24L121.52,53.6L122.62,53.59L122.49,54.58L123.27,55L123.59,54.78L124.15,54.99L125.03,54.31L125.44,55.07L124.74,55.37L125,55.59L124.91,57.11L125.72,57.98L126.9,58.53L127.16,59.69L127.77,59.73L128.64,60.43L128.42,61.12L128.85,61.68L128.89,62.59L130.74,63.01L132.84,65.33L133.11,66.86L132.51,66.87L132.5,67.45L131.06,68.08L130.92,67.64L130.45,67.59L130.44,68.49L129.28,68.33L128.48,68.72L128.93,69.49L128.67,70.51L129.93,70.88L131.34,70.7L133.72,72.29L134.3,74.86L133.58,75.12L133.46,76.69L130.66,76.96L129.52,77.41L130.85,78.48L130.47,82.19L131.17,82.28L132.02,83.07L132.05,83.58L131.46,84.75L127.67,84.15L126.93,85.92L126.91,87.57L126.4,88.84L126.62,90.65L126.37,91.7L124.83,94.01L125.47,94.86L125.16,95.24L124.75,95.09L123.77,92.85L123.12,92.4L121.97,92.78L120.91,92.66L121.39,92.08L120.32,90.91L120.3,89.81L118.28,90.41L117.09,90.36L117.21,91.38L116.78,91.13L114.27,92.04L112.55,92.83L112.67,93.26L110.58,92.85L109.88,91.87L110.2,92.98L109.71,93.77L109.26,93.7L108.91,94.23L109.28,94.15L109.39,94.75L110.5,95.87L108.93,96.02L108.78,95.69L107.93,95.61L107.35,94.9L106.58,94.89L107.21,96.67L106.92,97.76L107.64,97.44L107.91,98.37L107.44,98.73L106.97,99.89L105.35,100.06L105.01,99.7L103.56,99.52L103.36,99.09L101.14,99.13L101.07,100.18L102.08,100.97L102.33,101.56L102.01,103.46L99.84,103.12L101.98,104.35L101.56,105.69L102.25,105.5L102.63,106.13L102.71,107.33L103.53,107.34L104.02,108.17L103.6,109.09L102.97,109.21L102.59,108.21L101.77,108.73L101.96,109.99L102.55,110.8L101.22,111.42L101.25,111.85L100.64,111.83L100.35,112.41L100.72,113.08L100.72,113.08L98.86,112.32L98.97,110.98L98.66,110.23L97.55,110.19L94.94,107.76L94.55,108.33L94.75,110.05L93.06,110.04L93.08,109.34L92.43,109.28L92.13,109.69L89.79,109.96L89.3,110.34L87.15,110.06L87.43,108.35L85.14,106.97L85.14,106.61L83.18,106.44L83.27,104.09L82.96,103.87L83.32,103.61L82.99,102.25L83.24,101.95L82.89,101.76L82.78,102.25L82.09,102.42L81.76,102.12L81.82,100.73L80.89,99L80.31,98.8L78.85,99.61L78.21,99.59L76.81,98.61L76.59,97.82L76.93,97.17L75.93,96.1L75.46,96.65L74.17,96.64L73.7,97.85L71.33,97.42L70.02,96.5L69.67,95.58L69.04,95.4L67.78,93.08L66.03,93.19L66.03,93.19L65.86,92.49L65.21,92.29L65.49,90.09L64.55,90.29L63.66,89.89L63.58,88.62L63.84,88.4L63.47,88.28L63.85,87.65L63.48,87.31L62.35,87.53L61.98,87.15L61.6,86.16L61.77,85.07L62.57,83.94L63.18,83.61L64.56,83.68L64.55,83.96L66.65,83.7L67.78,82.81L68,82.15L67.02,82.04L66.01,81.05L64.86,80.91L62.05,77.73L61.58,75.65L60.11,74.53L60.84,74.33L60.42,74.23L60.18,73.61L60.69,73.06L60.12,72.86L59.99,71.15L59.16,70.71L58.84,70.99L58.65,70.06L58.23,69.76L58.34,69.09L57.9,68.6L58.07,68.11L58.55,68.09L58.65,67.01L57.72,66.27L57.06,66.37L56.52,65.17L55.76,64.94L54.78,63.68L54.23,63.62L54.33,62.93L53.79,62.36L53.77,61.02L52.8,59.87L52.78,59.41L52.64,59.65L51.64,59.39L51.45,59.68L51.05,59.41L51.27,58.96L50.87,58.44L50.75,57.19L51.37,56.76L51.17,56.56L51.68,55.34L52.35,55.27L52.13,54.7L52.44,54.2L52.06,53.92L52.94,53.45L52.92,52.93L52.59,52.76L52.95,52.54L52.56,52.53L52.11,51.88L52.36,51.27L51.16,51.07L51.08,50.39L52,49.71L51.84,49.09L51.5,48.69L50.8,48.92L50.15,48.32L50.08,47.51L50.23,47.92L51.68,48.2L52.07,47.84L50.73,45.34L51.5,44.47L51.63,43.7L50.57,43.1L49.72,41.41L51.64,40.47L52.11,39.8L53.18,40L55.6,39.08L55.95,39.48L55.99,40.58L57.17,40.22L60.04,40.99L58.91,42.29L59.01,43.2L60.4,42.81L62.91,43.77L63.76,42.66L65.58,41.6L67.13,39.13L72.16,36.36L73.76,34.6L72.99,31.74L74.6,29.2L74.44,28.58L76.09,27.36L79.14,27.39L82.32,26.93L84.32,26.26L85.76,26.81L87.27,26.6L88.15,27.31L88.67,27.31L90.93,25.7L91.33,25.78L91.58,26.57L94.11,25.8L94.55,26.58L95.68,26.58L96.79,25.5L97.55,25.39L100.11,23.6L101.59,23.59L103.45,22.63z"/>
	</g>
</svg>