<?xml version="1.0" encoding="utf-8"?>
<svg xmlns="http://www.w3.org/2000/svg" xmlns:amcharts="http://amcharts.com/ammap" xmlns:xlink="http://www.w3.org/1999/xlink" version="1.1" viewBox="0.0 175.18 84.23 61.129999999999995" >

    <g>
        <path id="UA-21" title="Zakarpattia" fill="black" d="M17.6,177.66L18.55,178.12L19.16,177.53L20.92,177.94L21.42,177.41L22.94,178.85L23.55,178.81L24.03,180.03L25.49,179.73L25.59,179.18L24.97,178.55L25.19,178.15L25.19,178.15L27.11,179.23L25.9,180.07L26.45,181.72L25.77,181.73L24.96,182.35L24.93,183.2L25.63,184.88L26.92,185.97L28.06,186.43L28.33,188.02L28.83,188.65L29.26,188.81L29.85,188.04L30.6,187.76L31.2,187.97L32.53,187.15L33.69,187.8L33.74,188.61L34.32,188.73L36.04,192.42L38.16,192.34L38.87,191.69L40.23,192.79L41.47,191.98L41.98,193.34L43.53,194.07L45.14,194.56L46.39,193.85L47.79,194.14L47.79,194.14L49.25,194.52L49.54,195.18L50.36,195.2L50.79,195.58L50.84,196.41L53.12,198.65L55.92,198.8L56.12,201.12L57.94,202.98L59.83,202.6L60.48,203.48L59.9,206.52L60.36,207.38L62,207.8L62.36,207.51L62.26,207.04L62.97,205.42L64.26,205.66L65.3,204.89L65.67,205.13L66.13,204.44L67.17,204.01L67.61,204.47L67.29,205.01L67.34,206.24L67.85,206.82L67.31,207.61L67.4,208.57L67.92,209.14L67.78,210.38L68.2,210.8L68.11,211.47L69.13,212.16L69.11,212.52L71.28,212.97L71.7,213.41L72.78,211.84L72.72,211.14L74.5,211.51L75.08,212.02L74.91,212.85L75.4,213.45L77.08,214.33L78,215.72L79.45,216.83L79.71,217.34L79.47,218.7L80.86,219.28L81.52,220.05L80.69,220.94L80.8,221.26L80.34,221.68L80.64,222.22L80.05,223.08L80.99,224.81L81.75,225.1L81.97,225.84L83.3,226.68L84.23,228.63L82.54,230.09L82.14,232.73L82.14,232.73L81.74,233.2L80.8,233.12L80.29,233.59L77.74,232.63L76.32,233.46L75.93,234.82L74.84,235.41L74,234.84L72.51,235.84L71.72,235.79L70.75,236.31L69.52,235.26L66.8,235.42L66.22,234.29L65.11,233.53L64.11,233.7L63.31,232.8L62.46,233.2L62.25,232.84L61.42,233.02L61.05,233.78L59.04,234.05L58.48,234.54L57.85,234.14L57.03,232.24L55.53,231.41L54.52,231.31L51.74,231.94L49.99,230.73L48.33,230.97L47.09,230.15L46.84,231.35L45.94,232.77L44.45,232.34L43.87,231.66L43.21,231.74L42.7,231.05L41.91,230.96L41.03,230.11L40.42,230.12L40.54,229.23L39.07,228.83L38.66,228.37L39.03,227.46L38.28,226.78L38.2,226.1L37.76,226.04L37.5,226.46L35.67,226.2L35.26,225.18L34.83,225.06L34.25,225.47L33.89,226.33L33.04,226.71L33.35,227.2L32.74,227.78L32.95,228.41L32.52,228.96L32.84,229.34L32.25,230.15L32.5,230.34L32.3,230.84L30.32,230.94L29.71,231.64L28.25,230.57L27.88,230.75L26.77,230.19L26.48,230.83L27.11,231.24L27.45,232.83L25.69,233.39L25.43,232.71L23.78,232.06L23.64,231.67L24.63,230.57L25.16,228.45L24.72,228.58L24.49,227.49L23.69,227.03L23.22,226.15L23.28,225.22L22.96,225.15L22.63,225.73L22.47,224.94L22.13,225.18L21.5,224.96L21.63,225.41L21.34,225.61L20.95,225.07L20.25,225.05L18.01,226.48L15.3,225.64L15.56,225.15L15.19,223.97L15.52,223.85L15.03,223.04L14.74,223.1L14.37,222.12L14.61,221.15L13.29,220.52L12.72,219.65L12.74,219.08L12.13,218.95L12.27,218.52L11.78,218.24L10.77,218.85L9.94,218.33L8.86,218.44L8.18,219.17L6.77,216.95L6.67,215.55L5.88,214.65L6.07,213.28L4.34,212.9L3.45,211.63L4.26,210.38L3.31,210.32L2.32,209.54L0.23,210.72L0,209.03L0.75,202.36L1.52,200.51L2.62,199.55L3.14,199.54L3.85,198.26L5.61,196.76L6.84,196.37L7.59,193.85L7.56,193.44L6.96,192.96L7.05,192.39L8.44,190.43L8.06,188.65L8.28,187.33L8.76,186.52L9.57,186.05L9.93,184.24L9.71,183.81L11.39,181.38L11.54,180.57L12.32,180.19L12.98,180.34L13.82,179.83L13.54,179.09L14,178.67L14.06,176.17L14.73,175.4L15.25,175.18L16.54,176.03z"/>
	</g>
</svg>